<svg xmlns="http://www.w3.org/2000/svg" width="71" height="70" viewBox="0 0 71 70">
  <g id="Broken_Promise" data-name="Broken Promise" transform="translate(-92 -79)">
    <rect id="Rectangle_1" data-name="Rectangle 1" width="70" height="70" transform="translate(92 79)" opacity="0"/>
    <g id="Group_2" data-name="Group 2">
      <path id="Path_18" data-name="Path 18" d="M35.424,50.677a2.2,2.2,0,0,1-1.322.881,2.314,2.314,0,0,1-1.653-.331l-.881-.551a3.526,3.526,0,0,0,.11-1.542,3.415,3.415,0,0,0-1.322-1.763h-.11a3.746,3.746,0,0,0-2.2-.331l.881-1.322a2.912,2.912,0,0,0-4.517-3.636v-.22a3.415,3.415,0,0,0-1.322-1.873,3.085,3.085,0,0,0-2.2-.441,3.305,3.305,0,0,0-1.873,1.322v.22A2.314,2.314,0,0,0,17.8,39.329h-.22a3.085,3.085,0,0,0-2.2-.441h-.11l-.881-1.983-1.542-.881,7.381-10.8H26.28l-4.737,2.864a.992.992,0,0,0-.331.661v4.958a1.542,1.542,0,0,0,1.542,1.542h.331a5.4,5.4,0,0,0,3.856-4.848h5.509l.441-.331-.441-.441h-6.39v.551a4.3,4.3,0,0,1-3.195,4.186c-.22.11-.441.11-.551-.11a.551.551,0,0,1-.331-.551V28.863l5.949-3.636h.22v-.771H20.771l.331-.331a2.754,2.754,0,0,0,.331-1.873,2.093,2.093,0,0,0-.992-1.542l-5.729-3.966a2.534,2.534,0,0,0-3.525.551L.94,32.279A2.424,2.424,0,0,0,1.6,35.694L7.33,39.66a2.2,2.2,0,0,0,1.432.441,2.314,2.314,0,0,0,1.983-.992L12.4,36.685l1.432.881.771,1.653a1.983,1.983,0,0,0-.992.881,2.864,2.864,0,0,0,.881,3.966h.11a2.534,2.534,0,0,0,1.542.441l1.322-.22a2.644,2.644,0,0,0,1.322,2.424,2.534,2.534,0,0,0,1.542.441h.661l.661-.331a1.653,1.653,0,0,0,.11.771,2.754,2.754,0,0,0,1.212,1.873,3.085,3.085,0,0,0,1.653.441h.551l.661-.22a2.975,2.975,0,0,0,1.322,2.534h.11a4.076,4.076,0,0,0,1.542.441h.661a2.975,2.975,0,0,0,1.763-1.1l.881.441a2.644,2.644,0,0,0,1.542.551h.661a3.2,3.2,0,0,0,1.763-1.212ZM10.084,38.558a1.763,1.763,0,0,1-2.2.441L2.042,35.033a1.542,1.542,0,0,1-.331-2.2L11.957,17.846a1.542,1.542,0,0,1,1.322-.661l.881.22,5.729,3.966a1.983,1.983,0,0,1,.661.992,1.542,1.542,0,0,1-.22,1.212Zm7.932,3.856v.331c-.11,0-.11.11-.11.22a2.2,2.2,0,0,1-2.754.441h-.11a1.983,1.983,0,0,1-.661-2.754A2.2,2.2,0,0,1,15.7,39.77h.441a1.873,1.873,0,0,1,1.1.331h.11A1.983,1.983,0,0,1,18.017,42.414Zm1.212,3.636a2.093,2.093,0,0,1-.771-2.644c0-.11.11-.11.11-.22l.22-.331.992-1.542a2.534,2.534,0,0,1,1.322-.992,1.873,1.873,0,0,1,1.542.331,2.093,2.093,0,0,1,.661,2.864l-1.212,1.873a1.983,1.983,0,0,1-2.864.661Zm7.161,2.093a2.2,2.2,0,0,1-1.322.881,2.864,2.864,0,0,1-1.653-.22,2.2,2.2,0,0,1-.661-2.975l1.212-1.873h0l.771-1.1a2.2,2.2,0,0,1,1.322-.881H26.5a1.873,1.873,0,0,1,1.1.331,1.983,1.983,0,0,1,.992,1.212,2.314,2.314,0,0,1-.331,1.653ZM30.576,50.9a2.2,2.2,0,0,1-1.322.881,2.424,2.424,0,0,1-1.542-.22H27.6a2.093,2.093,0,0,1-.551-2.864,1.983,1.983,0,0,1,1.653-.881,1.873,1.873,0,0,1,1.1.331h.11a2.2,2.2,0,0,1,.881,1.322,1.873,1.873,0,0,1-.22,1.432Z" transform="translate(93.496 79.124)" fill="#fff"/>
      <g id="Group_1" data-name="Group 1" transform="matrix(0.985, 0.174, -0.174, 0.985, 129.58, 95)">
        <path id="Path_17" data-name="Path 17" d="M33.492,16.239,23.466,1.145a2.314,2.314,0,0,0-1.542-1.1,2.754,2.754,0,0,0-1.873.331L14.212,4.23a2.424,2.424,0,0,0-.661,3.415l.22.441H0l.771.771H14.322l7.271,11.127-1.1.551-.551,1.432L12.67,17.45c0-.11-.22-.22-.331-.22h-5.4a5.949,5.949,0,0,1-2.754-.661l-.661.551A6.5,6.5,0,0,0,6.941,18h5.178l7.932,4.958a2.2,2.2,0,0,1,.881,1.322,1.763,1.763,0,0,1-.22,1.653,2.2,2.2,0,0,1-3.085.661L15.2,25.052h0l-6.72-4.187H8.153l6.61,4.3a1.653,1.653,0,0,1,.881,1.212,2.093,2.093,0,0,1-.22,1.653,1.983,1.983,0,0,1-1.432.992,1.873,1.873,0,0,1-1.542-.331L7.822,25.823l-.441.661,2.093,1.322a2.2,2.2,0,1,1-2.424,3.636L5.178,30.23l-.661.22,1.322,1.212h0l.771.441a3.305,3.305,0,0,0,1.653.551A3.085,3.085,0,0,0,10.8,31.222a2.644,2.644,0,0,0,.331-2.2h0l.881.441a2.644,2.644,0,0,0,1.542.551h.661a3.305,3.305,0,0,0,1.873-1.322,3.085,3.085,0,0,0,.441-2.2h-.11l.881.551a3.636,3.636,0,0,0,1.542.441,3.1,3.1,0,0,0,2.975-3.636A2.975,2.975,0,0,0,20.6,22.078l.551-1.212.992-.551,1.432,2.2a2.093,2.093,0,0,0,1.542.992h.441a3.085,3.085,0,0,0,1.432-.441l5.839-3.856a2.093,2.093,0,0,0,.992-1.542,2.754,2.754,0,0,0-.331-1.432Zm-.551,1.653a1.212,1.212,0,0,1-.661.992l-5.839,3.856a1.322,1.322,0,0,1-1.1.22,1.653,1.653,0,0,1-1.1-.661L14.212,7.2A1.653,1.653,0,0,1,14.763,5l5.729-3.856a1.653,1.653,0,0,1,2.2.441L32.721,16.679a1.653,1.653,0,0,1,.22,1.212Z" transform="translate(0.11)" fill="#fff"/>
        <path id="Path_19" data-name="Path 19" d="M5.839,23.907,4.3,22.7l2.754-4.407L0,10.687,5.288,6.61.661.441,2.644,0,7.822,7.051,2.754,10.907l6.5,7.051Z" transform="translate(0 8.196)" fill="#fff"/>
      </g>
      <path id="Path_20" data-name="Path 20" d="M32.814,51.133l-4.737-4.186,3.415-5.4-7.381-7.6,5.068-4.517L24,24.912,25.653,23.7l6.28,5.729-5.178,4.627,7.051,7.271L30.5,46.616l3.746,3.305Z" transform="translate(95.886 79.881)" fill="#fff"/>
    </g>
  </g>
</svg>
