<svg xmlns="http://www.w3.org/2000/svg" width="45" height="45" viewBox="0 0 45 45"><defs><style>.a{fill:#5daae0;}.b{fill:#fff;}</style></defs><g transform="translate(-1518 -26.5)"><g transform="translate(2 1.5)"><circle class="a" cx="22.5" cy="22.5" r="22.5" transform="translate(1516 25)"/><g transform="translate(1524.099 33.1)"><path class="b" d="M29.958,24.35l-4.646-4.616a1.562,1.562,0,0,0-2.176,0l-1.47,1.47a1.952,1.952,0,0,1-2.764,0l-7.263-7.263a1.952,1.952,0,0,1,0-2.764l1.47-1.47a1.562,1.562,0,0,0,0-2.176L8.493,2.885a1.521,1.521,0,0,0-1.941-.206A7.845,7.845,0,0,0,5.229,3.8a9.442,9.442,0,0,0,0,13.379L15.638,27.585a9.411,9.411,0,0,0,6.7,2.764,9.3,9.3,0,0,0,6.675-2.764,9.511,9.511,0,0,0,1.117-1.323A1.516,1.516,0,0,0,29.958,24.35Z" transform="translate(-2.45 -2.421)"/><path class="b" d="M56.406,22.068a1.178,1.178,0,0,0,.853-.353l5-5v1.764a1.206,1.206,0,1,0,2.411,0V13.806A1.192,1.192,0,0,0,63.463,12.6H58.787a1.206,1.206,0,0,0,0,2.411h1.764l-5,5a1.207,1.207,0,0,0,0,1.705A1.178,1.178,0,0,0,56.406,22.068Z" transform="translate(-39.689 -9.607)"/></g></g></g></svg>