<svg xmlns="http://www.w3.org/2000/svg" width="36" height="36" viewBox="0 0 36 36"><defs><style>.a{fill:#2e4351;}.b{fill:#5daae0;}</style></defs><g transform="translate(4084 1545)"><path class="a" d="M18,0A18,18,0,1,1,0,18,18,18,0,0,1,18,0Z" transform="translate(-4084 -1545)"/><g transform="translate(-4084 -1545)"><path class="b" d="M19.1,1.3a18,18,0,1,0,18,18A18,18,0,0,0,19.1,1.3Zm0,32.945A14.963,14.963,0,1,1,34.082,19.3,14.995,14.995,0,0,1,19.1,34.245Z" transform="translate(-1.1 -1.3)"/><path class="b" d="M45.045,42.257,41.7,39.091s-1.73,1.951-2.5,1.656a12.53,12.53,0,0,1-4.27-5.374c-.368-.736,2.172-2.1,2.172-2.1L34.738,29.3s-3.718,1.877-3.46,4.012a15.2,15.2,0,0,0,8.65,11.337C42.247,45.828,45.045,42.257,45.045,42.257Z" transform="translate(-20.161 -18.993)"/></g></g></svg>