<svg xmlns="http://www.w3.org/2000/svg" width="36" height="36" viewBox="0 0 36 36"><defs><style>.a{fill:#2e4351;}.b{fill:#5daae0;}</style></defs><g transform="translate(4122 1807)"><g transform="translate(-38 -262)"><path class="a" d="M18,0A18,18,0,1,1,0,18,18,18,0,0,1,18,0Z" transform="translate(-4084 -1545)"/></g><g transform="translate(16 31)"><path class="b" d="M19.1,1.3a18,18,0,1,0,18,18A18,18,0,0,0,19.1,1.3Zm0,32.945A14.963,14.963,0,1,1,34.082,19.3,14.995,14.995,0,0,1,19.1,34.245Z" transform="translate(-4139.1 -1839.3)"/><path class="b" d="M76.381,166.7a4.4,4.4,0,0,0-3.423,7.167H68.61a4.4,4.4,0,1,0-3.423,1.638H76.381a4.4,4.4,0,1,0,0-8.805Zm-13.959,4.4a2.764,2.764,0,1,1,2.764,2.764A2.767,2.767,0,0,1,62.422,171.1Zm13.959,2.764a2.764,2.764,0,1,1,2.764-2.764A2.767,2.767,0,0,1,76.381,173.864Z" transform="translate(-4190.784 -1990.697)"/></g></g></svg>