<svg xmlns="http://www.w3.org/2000/svg" width="36" height="37" viewBox="0 0 36 37"><defs><style>.a{fill:#2e4351;}.b{fill:#5daae0;}</style></defs><g transform="translate(4082 1435)"><g transform="translate(2 110)"><path class="a" d="M18,0A18,18,0,1,1,0,18,18,18,0,0,1,18,0Z" transform="translate(-4084 -1545)"/></g><path class="b" d="M3968,2152a18,18,0,1,1,18,18A18,18,0,0,1,3968,2152Zm3.019-.037A14.982,14.982,0,1,0,3986,2137.019,14.995,14.995,0,0,0,3971.018,2151.963Zm4.808,7.471a1.561,1.561,0,0,1-1.566-1.564v-11.74a1.562,1.562,0,0,1,1.566-1.565h20.348a1.561,1.561,0,0,1,1.564,1.565v11.74a1.56,1.56,0,0,1-1.564,1.564Zm17.448-2.579a.783.783,0,1,0,1.1-1.114l-3.865-3.864,3.853-3.619a.783.783,0,0,0-1.076-1.138l-6.579,6.188a1.271,1.271,0,0,1-1.431,0l-6.567-6.188a.784.784,0,0,0-.575-.22h-.048a.783.783,0,0,0-.452,1.358l3.852,3.619-3.865,3.864a.783.783,0,0,0,1.1,1.114l3.9-3.9,1.578,1.491a2.61,2.61,0,0,0,3.57,0l1.591-1.5Z" transform="translate(-8050 -3568)"/></g></svg>