<svg xmlns="http://www.w3.org/2000/svg" width="700.169" height="290" viewBox="0 0 700.169 290">
  <defs>
    <style>
      .cls-1 {
        fill: none;
        stroke: #5daae0;
        opacity: 0.25;
      }

      .cls-2, .cls-3, .cls-4 {
        fill: #fff;
      }

      .cls-2, .cls-4 {
        opacity: 0.6;
      }

      .cls-3 {
        opacity: 0.65;
      }

      .cls-4 {
        font-size: 20px;
        font-family: Roboto-Regular, Roboto;
      }
    </style>
  </defs>
  <g id="Correspondence_card" data-name="Correspondence card" transform="translate(-1112.999 -181.458)">
    <g id="Group_1271" data-name="Group 1271">
      <line id="Line_25" data-name="Line 25" class="cls-1" y2="290" transform="translate(1602.5 181.458)"/>
      <line id="Line_39" data-name="Line 39" class="cls-1" y2="290" transform="translate(1306.5 181.458)"/>
    </g>
    <g id="Group_1269" data-name="Group 1269" transform="translate(26)">
      <path id="Path_2152" data-name="Path 2152" class="cls-2" d="M-36.436-5.566V0h-1.875V-14.219h5.244a5.269,5.269,0,0,1,3.657,1.191,4.039,4.039,0,0,1,1.323,3.154A3.986,3.986,0,0,1-29.38-6.685a5.5,5.5,0,0,1-3.706,1.118Zm0-1.533h3.369a3.369,3.369,0,0,0,2.3-.709,2.593,2.593,0,0,0,.8-2.05,2.679,2.679,0,0,0-.8-2.035,3.156,3.156,0,0,0-2.2-.792h-3.477ZM-19.561,0a3.8,3.8,0,0,1-.254-1.113A4.031,4.031,0,0,1-22.822.2a3.73,3.73,0,0,1-2.563-.884,2.859,2.859,0,0,1-1-2.241,2.987,2.987,0,0,1,1.255-2.563,5.916,5.916,0,0,1,3.53-.913h1.758v-.83a2.029,2.029,0,0,0-.566-1.509,2.276,2.276,0,0,0-1.67-.562,2.634,2.634,0,0,0-1.621.488,1.439,1.439,0,0,0-.654,1.182h-1.816a2.493,2.493,0,0,1,.562-1.528,3.832,3.832,0,0,1,1.523-1.167,5.125,5.125,0,0,1,2.114-.43,4.177,4.177,0,0,1,2.861.913,3.294,3.294,0,0,1,1.074,2.515v4.863a5.946,5.946,0,0,0,.371,2.314V0Zm-3-1.377a3.175,3.175,0,0,0,1.611-.439,2.658,2.658,0,0,0,1.1-1.143V-5.127H-21.26q-3.32,0-3.32,1.943a1.645,1.645,0,0,0,.566,1.328A2.177,2.177,0,0,0-22.559-1.377ZM-9.053-2.8A1.33,1.33,0,0,0-9.6-3.94a5.311,5.311,0,0,0-1.924-.7,9.1,9.1,0,0,1-2.178-.7A3.1,3.1,0,0,1-14.9-6.318a2.336,2.336,0,0,1-.386-1.348,2.741,2.741,0,0,1,1.1-2.2,4.291,4.291,0,0,1,2.808-.9,4.415,4.415,0,0,1,2.915.928A2.947,2.947,0,0,1-7.344-7.461H-9.16A1.631,1.631,0,0,0-9.79-8.74a2.36,2.36,0,0,0-1.587-.537,2.47,2.47,0,0,0-1.543.43,1.353,1.353,0,0,0-.557,1.123,1.1,1.1,0,0,0,.518.986,6.368,6.368,0,0,0,1.87.635A9.744,9.744,0,0,1-8.9-5.381,3.2,3.2,0,0,1-7.651-4.37a2.485,2.485,0,0,1,.405,1.44A2.7,2.7,0,0,1-8.379-.659,4.752,4.752,0,0,1-11.318.2a5.321,5.321,0,0,1-2.246-.449,3.653,3.653,0,0,1-1.528-1.255,3.025,3.025,0,0,1-.552-1.743h1.807a1.87,1.87,0,0,0,.728,1.44,2.822,2.822,0,0,0,1.792.532,2.913,2.913,0,0,0,1.646-.415A1.275,1.275,0,0,0-9.053-2.8Zm6.611-10.322v2.559H-.469v1.4H-2.441v6.561a1.467,1.467,0,0,0,.264.953,1.11,1.11,0,0,0,.9.318A4.374,4.374,0,0,0-.42-1.455V0A5.268,5.268,0,0,1-1.807.2,2.25,2.25,0,0,1-3.633-.537a3.147,3.147,0,0,1-.615-2.08V-9.17H-6.172v-1.4h1.924v-2.559ZM6.875,0V-14.219h4.014a6.461,6.461,0,0,1,3.281.82,5.548,5.548,0,0,1,2.2,2.334,7.6,7.6,0,0,1,.786,3.477v.908a7.624,7.624,0,0,1-.776,3.525A5.461,5.461,0,0,1,14.165-.83,6.873,6.873,0,0,1,10.811,0ZM8.75-12.686V-1.533h1.973A4.292,4.292,0,0,0,14.1-2.882,5.573,5.573,0,0,0,15.3-6.723v-.831a5.661,5.661,0,0,0-1.138-3.768,4.049,4.049,0,0,0-3.228-1.364ZM26.23-1.045A3.837,3.837,0,0,1,23.135.2a3.285,3.285,0,0,1-2.573-.981,4.248,4.248,0,0,1-.894-2.905v-6.875h1.807V-3.74q0,2.4,1.953,2.4a2.7,2.7,0,0,0,2.754-1.543v-7.686h1.807V0H26.27ZM35.117.2a4.617,4.617,0,0,1-3.5-1.411A5.237,5.237,0,0,1,30.273-4.99v-.332a6.341,6.341,0,0,1,.6-2.808,4.685,4.685,0,0,1,1.68-1.934,4.223,4.223,0,0,1,2.339-.7A3.957,3.957,0,0,1,38.1-9.4a5.877,5.877,0,0,1,1.143,3.887v.752H32.08a3.756,3.756,0,0,0,.913,2.524,2.87,2.87,0,0,0,2.222.962,3.147,3.147,0,0,0,1.621-.391A4.073,4.073,0,0,0,38-2.705l1.1.859A4.437,4.437,0,0,1,35.117.2Zm-.225-9.473a2.41,2.41,0,0,0-1.836.8,3.868,3.868,0,0,0-.918,2.231h5.293v-.137a3.441,3.441,0,0,0-.742-2.134A2.269,2.269,0,0,0,34.893-9.277ZM-40.776,18.248h-3.34V24H-46V9.781h4.707a5.571,5.571,0,0,1,3.7,1.094A3.935,3.935,0,0,1-36.3,14.059a3.828,3.828,0,0,1-.718,2.314,4.285,4.285,0,0,1-2,1.475l3.34,6.035V24H-37.69Zm-3.34-1.533h2.881a3.249,3.249,0,0,0,2.222-.724,2.448,2.448,0,0,0,.825-1.937,2.578,2.578,0,0,0-.786-2.025,3.329,3.329,0,0,0-2.271-.714h-2.871Zm14.541,7.48a4.617,4.617,0,0,1-3.5-1.411,5.237,5.237,0,0,1-1.348-3.774v-.332a6.341,6.341,0,0,1,.6-2.808,4.685,4.685,0,0,1,1.68-1.934,4.223,4.223,0,0,1,2.339-.7A3.957,3.957,0,0,1-26.6,14.6a5.877,5.877,0,0,1,1.143,3.887v.752h-7.158a3.756,3.756,0,0,0,.913,2.524,2.87,2.87,0,0,0,2.222.962,3.147,3.147,0,0,0,1.621-.391,4.073,4.073,0,0,0,1.162-1.035l1.1.859A4.437,4.437,0,0,1-29.575,24.2Zm-.225-9.473a2.41,2.41,0,0,0-1.836.8,3.868,3.868,0,0,0-.918,2.231h5.293v-.137A3.441,3.441,0,0,0-28,15.479,2.269,2.269,0,0,0-29.8,14.723Zm8.135-1.289.049,1.172a3.9,3.9,0,0,1,3.135-1.367,3.021,3.021,0,0,1,3.018,1.7,4,4,0,0,1,1.372-1.23,4.052,4.052,0,0,1,2-.469q3.477,0,3.535,3.682V24h-1.807V17.027a2.426,2.426,0,0,0-.518-1.694,2.279,2.279,0,0,0-1.738-.562,2.4,2.4,0,0,0-1.67.6,2.436,2.436,0,0,0-.771,1.616V24H-16.88V17.076a2.016,2.016,0,0,0-2.256-2.3,2.417,2.417,0,0,0-2.432,1.514V24h-1.807V13.434ZM-3.872,24H-5.679V13.434h1.807ZM-5.825,10.631a1.078,1.078,0,0,1,.269-.742,1.008,1.008,0,0,1,.8-.3,1.024,1.024,0,0,1,.8.3,1.067,1.067,0,0,1,.273.742,1.032,1.032,0,0,1-.273.732,1.043,1.043,0,0,1-.8.293,1.026,1.026,0,0,1-.8-.293A1.043,1.043,0,0,1-5.825,10.631Zm6.553,2.8.059,1.328A3.85,3.85,0,0,1,3.95,13.238q3.35,0,3.379,3.779V24H5.522V17.008A2.432,2.432,0,0,0,5,15.318a2.094,2.094,0,0,0-1.6-.547,2.607,2.607,0,0,0-1.543.469,3.183,3.183,0,0,0-1.035,1.23V24H-.981V13.434Zm8.887,5.2a6.19,6.19,0,0,1,1.152-3.911,3.644,3.644,0,0,1,3.018-1.479,3.665,3.665,0,0,1,2.939,1.27V9H18.53V24H16.87l-.088-1.133A3.679,3.679,0,0,1,13.765,24.2a3.609,3.609,0,0,1-2.993-1.5,6.26,6.26,0,0,1-1.157-3.926Zm1.807.205a4.687,4.687,0,0,0,.742,2.813,2.4,2.4,0,0,0,2.051,1.016,2.636,2.636,0,0,0,2.51-1.543V16.266a2.656,2.656,0,0,0-2.49-1.494,2.411,2.411,0,0,0-2.07,1.025A5.16,5.16,0,0,0,11.421,18.834Zm14.3,5.361a4.617,4.617,0,0,1-3.5-1.411,5.237,5.237,0,0,1-1.348-3.774v-.332a6.341,6.341,0,0,1,.6-2.808,4.685,4.685,0,0,1,1.68-1.934,4.223,4.223,0,0,1,2.339-.7A3.957,3.957,0,0,1,28.7,14.6a5.877,5.877,0,0,1,1.143,3.887v.752H22.681a3.756,3.756,0,0,0,.913,2.524,2.87,2.87,0,0,0,2.222.962,3.147,3.147,0,0,0,1.621-.391A4.073,4.073,0,0,0,28.6,21.295l1.1.859A4.437,4.437,0,0,1,25.718,24.2Zm-.225-9.473a2.41,2.41,0,0,0-1.836.8,3.868,3.868,0,0,0-.918,2.231h5.293v-.137a3.441,3.441,0,0,0-.742-2.134A2.269,2.269,0,0,0,25.493,14.723Zm11.543.332a5.414,5.414,0,0,0-.889-.068A2.381,2.381,0,0,0,33.735,16.5V24H31.929V13.434h1.758l.029,1.221a2.813,2.813,0,0,1,2.52-1.416,1.846,1.846,0,0,1,.8.137ZM44.849,21.2A1.33,1.33,0,0,0,44.3,20.06a5.311,5.311,0,0,0-1.924-.7,9.1,9.1,0,0,1-2.178-.7A3.1,3.1,0,0,1,39,17.682a2.336,2.336,0,0,1-.386-1.348,2.741,2.741,0,0,1,1.1-2.2,4.291,4.291,0,0,1,2.808-.9,4.415,4.415,0,0,1,2.915.928,2.947,2.947,0,0,1,1.118,2.373H44.741a1.631,1.631,0,0,0-.63-1.279,2.36,2.36,0,0,0-1.587-.537,2.47,2.47,0,0,0-1.543.43,1.353,1.353,0,0,0-.557,1.123,1.1,1.1,0,0,0,.518.986,6.368,6.368,0,0,0,1.87.635A9.744,9.744,0,0,1,45,18.619,3.2,3.2,0,0,1,46.25,19.63a2.485,2.485,0,0,1,.405,1.44,2.7,2.7,0,0,1-1.133,2.271,4.752,4.752,0,0,1-2.939.854,5.321,5.321,0,0,1-2.246-.449,3.653,3.653,0,0,1-1.528-1.255,3.025,3.025,0,0,1-.552-1.743h1.807a1.87,1.87,0,0,0,.728,1.44,2.822,2.822,0,0,0,1.792.532,2.913,2.913,0,0,0,1.646-.415A1.275,1.275,0,0,0,44.849,21.2Z" transform="translate(1133 422.258)"/>
      <path id="Path_2151" data-name="Path 2151" class="cls-3" d="M41.357-71.143v7.666H39.7q-10.547.2-16.8,6.25T15.674-40.186q5.615-6.445,15.332-6.445,9.277,0,14.819,6.543t5.542,16.895q0,10.986-5.981,17.578T29.346.977A20.293,20.293,0,0,1,12.793-6.86Q6.445-14.7,6.445-27.051v-3.467q0-19.629,8.374-30t24.927-10.62ZM29.492-39.111a14.412,14.412,0,0,0-8.545,2.783,14.5,14.5,0,0,0-5.42,6.982v3.32q0,8.789,3.955,14.16t9.863,5.371a11.485,11.485,0,0,0,9.595-4.492q3.491-4.492,3.491-11.768,0-7.324-3.54-11.841A11.347,11.347,0,0,0,29.492-39.111Z" transform="translate(1105 329)"/>
    </g>
    <g id="Group_1268" data-name="Group 1268" transform="translate(-8)">
      <g id="Group_550" data-name="Group 550" transform="translate(981 -58.742)">
        <text id="Dunning_Notices" data-name="Dunning
Notices" class="cls-4" transform="translate(482 481)"><tspan x="-36.66" y="0">Dunning</tspan><tspan x="-34.214" y="24">Notices</tspan></text>
      </g>
      <path id="Path_2153" data-name="Path 2153" class="cls-3" d="M19.043-39.941H25.83q6.4-.1,10.059-3.369a11.257,11.257,0,0,0,3.662-8.838q0-12.5-12.451-12.5-5.859,0-9.351,3.345a11.706,11.706,0,0,0-3.491,8.862H5.225A18.135,18.135,0,0,1,11.4-66.479q6.177-5.591,15.7-5.591,10.059,0,15.771,5.322t5.713,14.795a15.606,15.606,0,0,1-3,8.984A18.131,18.131,0,0,1,37.4-36.475a17.471,17.471,0,0,1,9.058,6.152,17.087,17.087,0,0,1,3.2,10.5q0,9.57-6.25,15.186T27.148.977q-10.01,0-16.284-5.42A17.979,17.979,0,0,1,4.59-18.75h9.082a11.62,11.62,0,0,0,3.662,8.984Q21-6.4,27.148-6.4q6.543,0,10.01-3.418t3.467-9.814q0-6.2-3.809-9.521T25.83-32.568H19.043Z" transform="translate(1435 329)"/>
    </g>
    <g id="Group_1270" data-name="Group 1270" transform="translate(-1)">
      <path id="Path_2154" data-name="Path 2154" class="cls-2" d="M-60.811,0V-14.219h4.648a5.4,5.4,0,0,1,3.481.957,3.449,3.449,0,0,1,1.167,2.832,2.888,2.888,0,0,1-.566,1.763A3.672,3.672,0,0,1-53.623-7.48,3.3,3.3,0,0,1-51.8-6.255,3.517,3.517,0,0,1-51.133-4.1a3.8,3.8,0,0,1-1.24,3.008A5.129,5.129,0,0,1-55.879,0Zm1.875-6.65v5.117h3.1a2.981,2.981,0,0,0,2.065-.679,2.384,2.384,0,0,0,.757-1.87q0-2.568-2.793-2.568Zm0-1.5H-56.1a2.969,2.969,0,0,0,1.968-.617,2.067,2.067,0,0,0,.737-1.674,2.033,2.033,0,0,0-.684-1.708,3.357,3.357,0,0,0-2.08-.533h-2.773ZM-46.68,0h-1.807V-15h1.807Zm2.412-5.381a6.241,6.241,0,0,1,.61-2.793,4.553,4.553,0,0,1,1.7-1.914,4.626,4.626,0,0,1,2.485-.674,4.456,4.456,0,0,1,3.491,1.494,5.748,5.748,0,0,1,1.333,3.975v.127A6.3,6.3,0,0,1-35.239-2.4,4.486,4.486,0,0,1-36.929-.488,4.679,4.679,0,0,1-39.453.2,4.445,4.445,0,0,1-42.935-1.3a5.719,5.719,0,0,1-1.333-3.955Zm1.816.215a4.52,4.52,0,0,0,.815,2.822,2.61,2.61,0,0,0,2.183,1.064,2.594,2.594,0,0,0,2.188-1.079,4.943,4.943,0,0,0,.811-3.022A4.513,4.513,0,0,0-37.28-8.2a2.623,2.623,0,0,0-2.192-1.079,2.594,2.594,0,0,0-2.158,1.064A4.906,4.906,0,0,0-42.451-5.166Zm14.307,3.887a2.6,2.6,0,0,0,1.689-.586,2.061,2.061,0,0,0,.8-1.465h1.709A3.276,3.276,0,0,1-24.57-1.6,4.116,4.116,0,0,1-26.108-.293,4.438,4.438,0,0,1-28.145.2a4.353,4.353,0,0,1-3.433-1.44,5.737,5.737,0,0,1-1.274-3.94v-.3a6.361,6.361,0,0,1,.566-2.744A4.314,4.314,0,0,1-30.659-10.1a4.619,4.619,0,0,1,2.5-.664A4.238,4.238,0,0,1-25.2-9.7a3.8,3.8,0,0,1,1.255,2.764h-1.709a2.49,2.49,0,0,0-.776-1.685,2.415,2.415,0,0,0-1.724-.659,2.529,2.529,0,0,0-2.134.991,4.655,4.655,0,0,0-.757,2.866v.342a4.562,4.562,0,0,0,.752,2.813A2.541,2.541,0,0,0-28.145-1.279Zm9.18-3.613L-20.1-3.711V0H-21.9V-15H-20.1v9.072l.967-1.162,3.291-3.477h2.2l-4.111,4.414L-13.164,0h-2.119ZM-7.588.2a4.617,4.617,0,0,1-3.5-1.411A5.237,5.237,0,0,1-12.432-4.99v-.332a6.341,6.341,0,0,1,.6-2.808,4.685,4.685,0,0,1,1.68-1.934,4.223,4.223,0,0,1,2.339-.7A3.957,3.957,0,0,1-4.609-9.4,5.877,5.877,0,0,1-3.467-5.518v.752h-7.158a3.756,3.756,0,0,0,.913,2.524,2.87,2.87,0,0,0,2.222.962A3.147,3.147,0,0,0-5.869-1.67,4.073,4.073,0,0,0-4.707-2.705l1.1.859A4.437,4.437,0,0,1-7.588.2Zm-.225-9.473a2.41,2.41,0,0,0-1.836.8,3.868,3.868,0,0,0-.918,2.231h5.293v-.137a3.441,3.441,0,0,0-.742-2.134A2.269,2.269,0,0,0-7.812-9.277Zm6,3.906A6.19,6.19,0,0,1-.664-9.282a3.644,3.644,0,0,1,3.018-1.479,3.665,3.665,0,0,1,2.939,1.27V-15H7.1V0H5.439L5.352-1.133A3.679,3.679,0,0,1,2.334.2a3.609,3.609,0,0,1-2.993-1.5A6.26,6.26,0,0,1-1.816-5.234Zm1.807.205A4.687,4.687,0,0,0,.732-2.354,2.4,2.4,0,0,0,2.783-1.338a2.636,2.636,0,0,0,2.51-1.543V-7.734A2.656,2.656,0,0,0,2.8-9.229,2.411,2.411,0,0,0,.732-8.2,5.16,5.16,0,0,0-.01-5.166ZM26.074-6.65A8.8,8.8,0,0,1,25.371-3,5.326,5.326,0,0,1,23.379-.625,5.481,5.481,0,0,1,20.371.2,5.434,5.434,0,0,1,17.393-.63a5.453,5.453,0,0,1-2.017-2.354,8.439,8.439,0,0,1-.737-3.54V-7.549a8.691,8.691,0,0,1,.713-3.623,5.434,5.434,0,0,1,2.017-2.407,5.411,5.411,0,0,1,2.983-.835,5.512,5.512,0,0,1,3.013.825A5.316,5.316,0,0,1,25.371-11.2a8.838,8.838,0,0,1,.7,3.647Zm-1.865-.918a6.375,6.375,0,0,0-1.016-3.882A3.35,3.35,0,0,0,20.352-12.8a3.314,3.314,0,0,0-2.8,1.353A6.245,6.245,0,0,0,16.5-7.7V-6.65A6.384,6.384,0,0,0,17.534-2.8a3.328,3.328,0,0,0,2.837,1.4A3.314,3.314,0,0,0,23.184-2.72a6.348,6.348,0,0,0,1.025-3.794Zm9.5-1.377a5.414,5.414,0,0,0-.889-.068A2.381,2.381,0,0,0,30.41-7.5V0H28.6V-10.566h1.758l.029,1.221a2.813,2.813,0,0,1,2.52-1.416,1.846,1.846,0,0,1,.8.137Zm1.035,3.574A6.19,6.19,0,0,1,35.9-9.282a3.644,3.644,0,0,1,3.018-1.479,3.665,3.665,0,0,1,2.939,1.27V-15h1.807V0H42l-.088-1.133A3.679,3.679,0,0,1,38.9.2a3.609,3.609,0,0,1-2.993-1.5,6.26,6.26,0,0,1-1.157-3.926Zm1.807.205a4.687,4.687,0,0,0,.742,2.813,2.4,2.4,0,0,0,2.051,1.016,2.636,2.636,0,0,0,2.51-1.543V-7.734a2.656,2.656,0,0,0-2.49-1.494A2.411,2.411,0,0,0,37.295-8.2,5.16,5.16,0,0,0,36.553-5.166ZM50.85.2a4.617,4.617,0,0,1-3.5-1.411A5.237,5.237,0,0,1,46.006-4.99v-.332a6.341,6.341,0,0,1,.6-2.808,4.685,4.685,0,0,1,1.68-1.934,4.223,4.223,0,0,1,2.339-.7,3.957,3.957,0,0,1,3.2,1.357,5.877,5.877,0,0,1,1.143,3.887v.752H47.813a3.756,3.756,0,0,0,.913,2.524,2.87,2.87,0,0,0,2.222.962,3.147,3.147,0,0,0,1.621-.391A4.073,4.073,0,0,0,53.73-2.705l1.1.859A4.437,4.437,0,0,1,50.85.2Zm-.225-9.473a2.41,2.41,0,0,0-1.836.8,3.868,3.868,0,0,0-.918,2.231h5.293v-.137a3.441,3.441,0,0,0-.742-2.134A2.269,2.269,0,0,0,50.625-9.277Zm11.543.332a5.414,5.414,0,0,0-.889-.068A2.381,2.381,0,0,0,58.867-7.5V0H57.061V-10.566h1.758l.029,1.221a2.813,2.813,0,0,1,2.52-1.416,1.846,1.846,0,0,1,.8.137ZM-21.636,24h-1.885l-7.158-10.957V24h-1.885V9.781h1.885L-23.5,20.787V9.781h1.865Zm2.568-5.381a6.241,6.241,0,0,1,.61-2.793,4.553,4.553,0,0,1,1.7-1.914,4.626,4.626,0,0,1,2.485-.674,4.456,4.456,0,0,1,3.491,1.494,5.748,5.748,0,0,1,1.333,3.975v.127a6.3,6.3,0,0,1-.591,2.769,4.486,4.486,0,0,1-1.689,1.909,4.679,4.679,0,0,1-2.524.684A4.445,4.445,0,0,1-17.734,22.7a5.719,5.719,0,0,1-1.333-3.955Zm1.816.215a4.52,4.52,0,0,0,.815,2.822,2.61,2.61,0,0,0,2.183,1.064,2.594,2.594,0,0,0,2.188-1.079,4.943,4.943,0,0,0,.811-3.022A4.513,4.513,0,0,0-12.08,15.8a2.623,2.623,0,0,0-2.192-1.079,2.594,2.594,0,0,0-2.158,1.064A4.906,4.906,0,0,0-17.251,18.834Zm12.52-7.959v2.559h1.973v1.4H-4.731v6.561a1.467,1.467,0,0,0,.264.953,1.11,1.11,0,0,0,.9.318,4.374,4.374,0,0,0,.859-.117V24A5.268,5.268,0,0,1-4.1,24.2a2.25,2.25,0,0,1-1.826-.732,3.147,3.147,0,0,1-.615-2.08V14.83H-8.462v-1.4h1.924V10.875ZM1.313,24H-.493V13.434H1.313ZM-.64,10.631a1.078,1.078,0,0,1,.269-.742,1.008,1.008,0,0,1,.8-.3,1.024,1.024,0,0,1,.8.3,1.067,1.067,0,0,1,.273.742,1.032,1.032,0,0,1-.273.732,1.043,1.043,0,0,1-.8.293,1.026,1.026,0,0,1-.8-.293A1.043,1.043,0,0,1-.64,10.631Zm9.082,12.09a2.6,2.6,0,0,0,1.689-.586,2.061,2.061,0,0,0,.8-1.465h1.709a3.276,3.276,0,0,1-.625,1.729,4.116,4.116,0,0,1-1.538,1.309,4.438,4.438,0,0,1-2.036.488,4.353,4.353,0,0,1-3.433-1.44,5.737,5.737,0,0,1-1.274-3.94v-.3A6.361,6.361,0,0,1,4.3,15.768,4.314,4.314,0,0,1,5.928,13.9a4.619,4.619,0,0,1,2.5-.664A4.238,4.238,0,0,1,11.387,14.3a3.8,3.8,0,0,1,1.255,2.764H10.933a2.49,2.49,0,0,0-.776-1.685,2.415,2.415,0,0,0-1.724-.659,2.529,2.529,0,0,0-2.134.991,4.655,4.655,0,0,0-.757,2.866v.342a4.562,4.562,0,0,0,.752,2.813A2.541,2.541,0,0,0,8.442,22.721ZM19.058,24.2a4.617,4.617,0,0,1-3.5-1.411,5.237,5.237,0,0,1-1.348-3.774v-.332a6.341,6.341,0,0,1,.6-2.808,4.685,4.685,0,0,1,1.68-1.934,4.223,4.223,0,0,1,2.339-.7,3.957,3.957,0,0,1,3.2,1.357,5.877,5.877,0,0,1,1.143,3.887v.752H16.021a3.756,3.756,0,0,0,.913,2.524,2.87,2.87,0,0,0,2.222.962,3.147,3.147,0,0,0,1.621-.391,4.073,4.073,0,0,0,1.162-1.035l1.1.859A4.437,4.437,0,0,1,19.058,24.2Zm-.225-9.473a2.41,2.41,0,0,0-1.836.8,3.868,3.868,0,0,0-.918,2.231h5.293v-.137a3.441,3.441,0,0,0-.742-2.134A2.269,2.269,0,0,0,18.833,14.723ZM31.421,21.2a1.33,1.33,0,0,0-.552-1.138,5.311,5.311,0,0,0-1.924-.7,9.1,9.1,0,0,1-2.178-.7,3.1,3.1,0,0,1-1.191-.977,2.336,2.336,0,0,1-.386-1.348,2.741,2.741,0,0,1,1.1-2.2,4.291,4.291,0,0,1,2.808-.9,4.415,4.415,0,0,1,2.915.928,2.947,2.947,0,0,1,1.118,2.373H31.313a1.631,1.631,0,0,0-.63-1.279,2.36,2.36,0,0,0-1.587-.537,2.47,2.47,0,0,0-1.543.43A1.353,1.353,0,0,0,27,16.275a1.1,1.1,0,0,0,.518.986,6.368,6.368,0,0,0,1.87.635,9.744,9.744,0,0,1,2.192.723,3.2,3.2,0,0,1,1.245,1.011,2.485,2.485,0,0,1,.405,1.44,2.7,2.7,0,0,1-1.133,2.271,4.752,4.752,0,0,1-2.939.854,5.321,5.321,0,0,1-2.246-.449,3.653,3.653,0,0,1-1.528-1.255,3.025,3.025,0,0,1-.552-1.743h1.807a1.87,1.87,0,0,0,.728,1.44,2.822,2.822,0,0,0,1.792.532,2.913,2.913,0,0,0,1.646-.415A1.275,1.275,0,0,0,31.421,21.2Z" transform="translate(1752 422.258)"/>
      <path id="Path_2155" data-name="Path 2155" class="cls-3" d="M44.043-23.877h9.863V-16.5H44.043V0H34.961V-16.5H2.588v-5.322L34.424-71.094h9.619Zm-31.2,0H34.961V-58.74l-1.074,1.953Z" transform="translate(1724 329)"/>
    </g>
  </g>
</svg>
