<svg xmlns="http://www.w3.org/2000/svg" width="615" height="290" viewBox="0 0 615 290">
  <defs>
    <style>
      .cls-1, .cls-2, .cls-5 {
        fill: none;
        stroke: #5daae0;
      }

      .cls-1, .cls-2 {
        stroke-width: 12px;
      }

      .cls-1 {
        opacity: 0.1;
      }

      .cls-2 {
        fill-rule: evenodd;
      }

      .cls-3, .cls-4 {
        fill: #fff;
      }

      .cls-3 {
        opacity: 0.8;
      }

      .cls-4 {
        opacity: 0.6;
      }

      .cls-5 {
        opacity: 0.25;
      }
    </style>
  </defs>
  <g id="Credit_Application_review" data-name="Credit Application review" transform="translate(-239 -671.457)">
    <g id="Group_549" data-name="Group 549" transform="translate(87 431.258)">
      <g id="Group_541" data-name="Group 541" transform="translate(-2 -0.403)">
        <circle id="Oval-17" class="cls-1" cx="79.5" cy="79.5" r="79.5" transform="translate(160 260.403)"/>
        <path id="Oval-17-2" data-name="Oval-17" class="cls-2" d="M135.319,118.091A79.573,79.573,0,0,0,66.032,0" transform="translate(173.736 260.403)"/>
      </g>
      <path id="Path_2147" data-name="Path 2147" class="cls-3" d="M5.313-28.457v3.066H4.648a9.514,9.514,0,0,0-6.719,2.5,10.4,10.4,0,0,0-2.891,6.816,7.713,7.713,0,0,1,6.133-2.578A7.374,7.374,0,0,1,7.1-16.035,10.1,10.1,0,0,1,9.316-9.277,10.063,10.063,0,0,1,6.924-2.246,8.238,8.238,0,0,1,.508.391,8.117,8.117,0,0,1-6.113-2.744,12.424,12.424,0,0,1-8.652-10.82v-1.387q0-7.852,3.35-12t9.971-4.248ZM.566-15.645a5.765,5.765,0,0,0-3.418,1.113A5.8,5.8,0,0,0-5.02-11.738v1.328A9.329,9.329,0,0,0-3.437-4.746,4.741,4.741,0,0,0,.508-2.6a4.594,4.594,0,0,0,3.838-1.8A7.456,7.456,0,0,0,5.742-9.1a7.458,7.458,0,0,0-1.416-4.736A4.539,4.539,0,0,0,.566-15.645ZM-21.992,23.619a6.241,6.241,0,0,1,.61-2.793,4.553,4.553,0,0,1,1.7-1.914,4.626,4.626,0,0,1,2.485-.674,4.456,4.456,0,0,1,3.491,1.494,5.748,5.748,0,0,1,1.333,3.975v.127a6.3,6.3,0,0,1-.591,2.769,4.486,4.486,0,0,1-1.689,1.909,4.679,4.679,0,0,1-2.524.684A4.445,4.445,0,0,1-20.659,27.7a5.719,5.719,0,0,1-1.333-3.955Zm1.816.215a4.52,4.52,0,0,0,.815,2.822,2.61,2.61,0,0,0,2.183,1.064,2.594,2.594,0,0,0,2.188-1.079,4.943,4.943,0,0,0,.811-3.022A4.513,4.513,0,0,0-15,20.8,2.623,2.623,0,0,0-17.2,19.723a2.594,2.594,0,0,0-2.158,1.064A4.906,4.906,0,0,0-20.176,23.834ZM-9.219,29V19.83h-1.67v-1.4h1.67V17.35a3.6,3.6,0,0,1,.908-2.627,3.431,3.431,0,0,1,2.568-.928,4.77,4.77,0,0,1,1.24.165l-.1,1.456a5.189,5.189,0,0,0-.977-.088,1.763,1.763,0,0,0-1.357.514,2.086,2.086,0,0,0-.479,1.474v1.117h2.256v1.4H-7.412V29Zm20.137,0H1.6V27.7l4.922-5.469a11.693,11.693,0,0,0,1.509-2.017,3.366,3.366,0,0,0,.415-1.606,2.551,2.551,0,0,0-.674-1.826,2.356,2.356,0,0,0-1.8-.713,2.79,2.79,0,0,0-2.095.767,2.928,2.928,0,0,0-.747,2.134H1.328A4.194,4.194,0,0,1,2.593,15.8a4.688,4.688,0,0,1,3.384-1.211,4.5,4.5,0,0,1,3.135,1.04,3.548,3.548,0,0,1,1.152,2.769q0,2.1-2.676,5L3.779,27.525h7.139Zm10.83-6.064a8.263,8.263,0,0,1-1.084,4.717A3.855,3.855,0,0,1,17.275,29.2a3.883,3.883,0,0,1-3.369-1.509,7.843,7.843,0,0,1-1.133-4.507V20.768a8.079,8.079,0,0,1,1.084-4.658,3.885,3.885,0,0,1,3.4-1.523,3.92,3.92,0,0,1,3.379,1.47,7.8,7.8,0,0,1,1.113,4.536Zm-1.807-2.471A6.62,6.62,0,0,0,19.3,17.12a2.218,2.218,0,0,0-2.041-1.05,2.189,2.189,0,0,0-2.021,1.045,6.464,6.464,0,0,0-.654,3.213v2.891a6.726,6.726,0,0,0,.669,3.4,2.214,2.214,0,0,0,2.026,1.1,2.184,2.184,0,0,0,1.987-1.035,6.483,6.483,0,0,0,.679-3.262Z" transform="translate(237 342)"/>
      <path id="Path_2148" data-name="Path 2148" class="cls-4" d="M-13.828-3.721h-5.957L-21.123,0h-1.934l5.43-14.219h1.641L-10.547,0h-1.924Zm-5.391-1.533h4.834l-2.422-6.65ZM-2.5-1.045A3.837,3.837,0,0,1-5.6.2,3.285,3.285,0,0,1-8.169-.786a4.248,4.248,0,0,1-.894-2.905v-6.875h1.807V-3.74q0,2.4,1.953,2.4A2.7,2.7,0,0,0-2.549-2.881v-7.686H-.742V0H-2.461Zm6.953-12.08v2.559H6.426v1.4H4.453v6.561a1.467,1.467,0,0,0,.264.953,1.11,1.11,0,0,0,.9.318,4.374,4.374,0,0,0,.859-.117V0A5.268,5.268,0,0,1,5.088.2,2.25,2.25,0,0,1,3.262-.537a3.147,3.147,0,0,1-.615-2.08V-9.17H.723v-1.4H2.646v-2.559ZM7.861-5.381a6.241,6.241,0,0,1,.61-2.793,4.553,4.553,0,0,1,1.7-1.914,4.626,4.626,0,0,1,2.485-.674,4.456,4.456,0,0,1,3.491,1.494A5.748,5.748,0,0,1,17.48-5.293v.127A6.3,6.3,0,0,1,16.89-2.4,4.486,4.486,0,0,1,15.2-.488,4.679,4.679,0,0,1,12.676.2,4.445,4.445,0,0,1,9.194-1.3,5.719,5.719,0,0,1,7.861-5.254Zm1.816.215a4.52,4.52,0,0,0,.815,2.822,2.61,2.61,0,0,0,2.183,1.064,2.594,2.594,0,0,0,2.188-1.079,4.943,4.943,0,0,0,.811-3.022A4.513,4.513,0,0,0,14.849-8.2a2.623,2.623,0,0,0-2.192-1.079A2.594,2.594,0,0,0,10.5-8.213,4.906,4.906,0,0,0,9.678-5.166Zm-47.7,23.414h-3.34V24h-1.885V9.781h4.707a5.571,5.571,0,0,1,3.7,1.094,3.935,3.935,0,0,1,1.294,3.184,3.828,3.828,0,0,1-.718,2.314,4.285,4.285,0,0,1-2,1.475l3.34,6.035V24h-2.012Zm-3.34-1.533h2.881a3.249,3.249,0,0,0,2.222-.724,2.448,2.448,0,0,0,.825-1.937,2.578,2.578,0,0,0-.786-2.025,3.329,3.329,0,0,0-2.271-.714h-2.871Zm14.541,7.48a4.617,4.617,0,0,1-3.5-1.411,5.237,5.237,0,0,1-1.348-3.774v-.332a6.341,6.341,0,0,1,.6-2.808,4.685,4.685,0,0,1,1.68-1.934,4.223,4.223,0,0,1,2.339-.7,3.957,3.957,0,0,1,3.2,1.357A5.877,5.877,0,0,1-22.7,18.482v.752h-7.158a3.756,3.756,0,0,0,.913,2.524,2.87,2.87,0,0,0,2.222.962A3.147,3.147,0,0,0-25.1,22.33a4.073,4.073,0,0,0,1.162-1.035l1.1.859A4.437,4.437,0,0,1-26.821,24.2Zm-.225-9.473a2.41,2.41,0,0,0-1.836.8A3.868,3.868,0,0,0-29.8,17.75h5.293v-.137a3.441,3.441,0,0,0-.742-2.134A2.269,2.269,0,0,0-27.046,14.723Zm9.795,6.826,2.617-8.115h1.846L-16.577,24h-1.377l-3.828-10.566h1.846ZM-9.087,24h-1.807V13.434h1.807ZM-11.04,10.631a1.078,1.078,0,0,1,.269-.742,1.008,1.008,0,0,1,.8-.3,1.024,1.024,0,0,1,.8.3,1.067,1.067,0,0,1,.273.742,1.032,1.032,0,0,1-.273.732,1.043,1.043,0,0,1-.8.293,1.026,1.026,0,0,1-.8-.293A1.043,1.043,0,0,1-11.04,10.631ZM-1.812,24.2a4.617,4.617,0,0,1-3.5-1.411A5.237,5.237,0,0,1-6.655,19.01v-.332a6.341,6.341,0,0,1,.6-2.808,4.685,4.685,0,0,1,1.68-1.934,4.223,4.223,0,0,1,2.339-.7,3.957,3.957,0,0,1,3.2,1.357A5.877,5.877,0,0,1,2.31,18.482v.752H-4.849a3.756,3.756,0,0,0,.913,2.524,2.87,2.87,0,0,0,2.222.962A3.147,3.147,0,0,0-.093,22.33a4.073,4.073,0,0,0,1.162-1.035l1.1.859A4.437,4.437,0,0,1-1.812,24.2Zm-.225-9.473a2.41,2.41,0,0,0-1.836.8A3.868,3.868,0,0,0-4.79,17.75H.5v-.137a3.441,3.441,0,0,0-.742-2.134A2.269,2.269,0,0,0-2.036,14.723ZM13.755,21.51l2.031-8.076h1.807L14.517,24H13.052l-2.568-8.008L7.983,24H6.519L3.452,13.434h1.8l2.08,7.91,2.461-7.91h1.455ZM23.813,24.2a4.617,4.617,0,0,1-3.5-1.411A5.237,5.237,0,0,1,18.97,19.01v-.332a6.341,6.341,0,0,1,.6-2.808,4.685,4.685,0,0,1,1.68-1.934,4.223,4.223,0,0,1,2.339-.7,3.957,3.957,0,0,1,3.2,1.357,5.877,5.877,0,0,1,1.143,3.887v.752H20.776a3.756,3.756,0,0,0,.913,2.524,2.87,2.87,0,0,0,2.222.962,3.147,3.147,0,0,0,1.621-.391,4.073,4.073,0,0,0,1.162-1.035l1.1.859A4.437,4.437,0,0,1,23.813,24.2Zm-.225-9.473a2.41,2.41,0,0,0-1.836.8,3.868,3.868,0,0,0-.918,2.231h5.293v-.137a3.441,3.441,0,0,0-.742-2.134A2.269,2.269,0,0,0,23.589,14.723Zm6,3.906a6.19,6.19,0,0,1,1.152-3.911,3.921,3.921,0,0,1,5.957-.21V9H38.5V24h-1.66l-.088-1.133A3.679,3.679,0,0,1,33.735,24.2a3.609,3.609,0,0,1-2.993-1.5,6.26,6.26,0,0,1-1.157-3.926Zm1.807.205a4.687,4.687,0,0,0,.742,2.813,2.4,2.4,0,0,0,2.051,1.016,2.636,2.636,0,0,0,2.51-1.543V16.266a2.656,2.656,0,0,0-2.49-1.494,2.411,2.411,0,0,0-2.07,1.025A5.16,5.16,0,0,0,31.392,18.834Z" transform="translate(237 481)"/>
    </g>
    <g id="Group_1274" data-name="Group 1274" transform="translate(531 431.258)">
      <g id="Group_541-2" data-name="Group 541" transform="translate(-2 -0.403)">
        <circle id="Oval-17-3" data-name="Oval-17" class="cls-1" cx="79.5" cy="79.5" r="79.5" transform="translate(160 260.403)"/>
        <path id="Oval-17-4" data-name="Oval-17" class="cls-2" d="M131.628,34.9A78.946,78.946,0,0,0,66.032,0" transform="translate(173.736 260.403)"/>
      </g>
      <path id="Path_2149" data-name="Path 2149" class="cls-3" d="M-3.613-15.977H-.9a5.967,5.967,0,0,0,4.023-1.348A4.5,4.5,0,0,0,4.59-20.859q0-5-4.98-5a5.18,5.18,0,0,0-3.74,1.338,4.682,4.682,0,0,0-1.4,3.545H-9.141A7.254,7.254,0,0,1-6.67-26.592,9,9,0,0,1-.391-28.828,8.894,8.894,0,0,1,5.918-26.7,7.691,7.691,0,0,1,8.2-20.781,6.242,6.242,0,0,1,7-17.187a7.253,7.253,0,0,1-3.271,2.6,6.989,6.989,0,0,1,3.623,2.461,6.835,6.835,0,0,1,1.279,4.2,7.757,7.757,0,0,1-2.5,6.074A9.362,9.362,0,0,1-.371.391,9.609,9.609,0,0,1-6.885-1.777,7.192,7.192,0,0,1-9.395-7.5h3.633A4.648,4.648,0,0,0-4.3-3.906,5.572,5.572,0,0,0-.371-2.559a5.467,5.467,0,0,0,4-1.367A5.269,5.269,0,0,0,5.02-7.852,4.781,4.781,0,0,0,3.5-11.66,6.638,6.638,0,0,0-.9-13.027H-3.613Zm-18.379,39.6a6.241,6.241,0,0,1,.61-2.793,4.553,4.553,0,0,1,1.7-1.914,4.626,4.626,0,0,1,2.485-.674,4.456,4.456,0,0,1,3.491,1.494,5.748,5.748,0,0,1,1.333,3.975v.127a6.3,6.3,0,0,1-.591,2.769,4.486,4.486,0,0,1-1.689,1.909,4.679,4.679,0,0,1-2.524.684A4.445,4.445,0,0,1-20.659,27.7a5.719,5.719,0,0,1-1.333-3.955Zm1.816.215a4.52,4.52,0,0,0,.815,2.822,2.61,2.61,0,0,0,2.183,1.064,2.594,2.594,0,0,0,2.188-1.079,4.943,4.943,0,0,0,.811-3.022A4.513,4.513,0,0,0-15,20.8,2.623,2.623,0,0,0-17.2,19.723a2.594,2.594,0,0,0-2.158,1.064A4.906,4.906,0,0,0-20.176,23.834ZM-9.219,29V19.83h-1.67v-1.4h1.67V17.35a3.6,3.6,0,0,1,.908-2.627,3.431,3.431,0,0,1,2.568-.928,4.77,4.77,0,0,1,1.24.165l-.1,1.456a5.189,5.189,0,0,0-.977-.088,1.763,1.763,0,0,0-1.357.514,2.086,2.086,0,0,0-.479,1.474v1.117h2.256v1.4H-7.412V29ZM7.539,29H5.723V16.959L2.08,18.3V16.656l5.176-1.943h.283Zm12.92-4.775h1.973V25.7H20.459V29H18.643V25.7H12.168V24.635l6.367-9.854h1.924Zm-6.24,0h4.424V17.252l-.215.391Z" transform="translate(237 342)"/>
      <path id="Path_2150" data-name="Path 2150" class="cls-4" d="M-36.152-14.219l4.648,11.6,4.648-11.6h2.432V0H-26.3V-5.537l.176-5.977L-30.791,0h-1.436l-4.658-11.484.186,5.947V0h-1.875V-14.219ZM-14.873,0a3.8,3.8,0,0,1-.254-1.113A4.031,4.031,0,0,1-18.135.2,3.73,3.73,0,0,1-20.7-.688a2.859,2.859,0,0,1-1-2.241,2.987,2.987,0,0,1,1.255-2.563,5.916,5.916,0,0,1,3.53-.913h1.758v-.83a2.029,2.029,0,0,0-.566-1.509,2.276,2.276,0,0,0-1.67-.562,2.634,2.634,0,0,0-1.621.488,1.439,1.439,0,0,0-.654,1.182h-1.816a2.493,2.493,0,0,1,.562-1.528A3.832,3.832,0,0,1-19.4-10.332a5.125,5.125,0,0,1,2.114-.43,4.177,4.177,0,0,1,2.861.913A3.294,3.294,0,0,1-13.35-7.334v4.863a5.946,5.946,0,0,0,.371,2.314V0Zm-3-1.377a3.175,3.175,0,0,0,1.611-.439,2.658,2.658,0,0,0,1.1-1.143V-5.127h-1.416q-3.32,0-3.32,1.943a1.645,1.645,0,0,0,.566,1.328A2.177,2.177,0,0,0-17.871-1.377Zm9.063-9.189.059,1.328a3.85,3.85,0,0,1,3.164-1.523q3.35,0,3.379,3.779V0H-4.014V-6.992a2.432,2.432,0,0,0-.522-1.689,2.094,2.094,0,0,0-1.6-.547,2.607,2.607,0,0,0-1.543.469,3.183,3.183,0,0,0-1.035,1.23V0h-1.807V-10.566ZM7.041-1.045A3.837,3.837,0,0,1,3.945.2,3.285,3.285,0,0,1,1.372-.786,4.248,4.248,0,0,1,.479-3.691v-6.875H2.285V-3.74q0,2.4,1.953,2.4A2.7,2.7,0,0,0,6.992-2.881v-7.686H8.8V0H7.08ZM18.066,0a3.8,3.8,0,0,1-.254-1.113A4.031,4.031,0,0,1,14.8.2a3.73,3.73,0,0,1-2.563-.884,2.859,2.859,0,0,1-1-2.241A2.987,2.987,0,0,1,12.5-5.493a5.916,5.916,0,0,1,3.53-.913h1.758v-.83a2.029,2.029,0,0,0-.566-1.509,2.276,2.276,0,0,0-1.67-.562,2.634,2.634,0,0,0-1.621.488,1.439,1.439,0,0,0-.654,1.182H11.455a2.493,2.493,0,0,1,.562-1.528,3.832,3.832,0,0,1,1.523-1.167,5.125,5.125,0,0,1,2.114-.43,4.177,4.177,0,0,1,2.861.913A3.294,3.294,0,0,1,19.59-7.334v4.863a5.946,5.946,0,0,0,.371,2.314V0Zm-3-1.377a3.175,3.175,0,0,0,1.611-.439,2.658,2.658,0,0,0,1.1-1.143V-5.127H16.367q-3.32,0-3.32,1.943a1.645,1.645,0,0,0,.566,1.328A2.177,2.177,0,0,0,15.068-1.377ZM24.385,0H22.578V-15h1.807Zm4.854,0H27.432V-15h1.807Zm6.348-2.646,2.461-7.92H39.98l-4.248,12.2Q34.746,4.268,32.6,4.268l-.342-.029-.674-.127V2.646l.488.039A2.4,2.4,0,0,0,33.5,2.314,2.686,2.686,0,0,0,34.346.957l.4-1.074-3.77-10.449h1.973ZM-35.547,18.248h-3.34V24h-1.885V9.781h4.707a5.571,5.571,0,0,1,3.7,1.094,3.935,3.935,0,0,1,1.294,3.184,3.828,3.828,0,0,1-.718,2.314,4.285,4.285,0,0,1-2,1.475l3.34,6.035V24h-2.012Zm-3.34-1.533h2.881a3.249,3.249,0,0,0,2.222-.724,2.448,2.448,0,0,0,.825-1.937,2.578,2.578,0,0,0-.786-2.025,3.329,3.329,0,0,0-2.271-.714h-2.871Zm14.541,7.48a4.617,4.617,0,0,1-3.5-1.411,5.237,5.237,0,0,1-1.348-3.774v-.332a6.341,6.341,0,0,1,.6-2.808,4.685,4.685,0,0,1,1.68-1.934,4.223,4.223,0,0,1,2.339-.7,3.957,3.957,0,0,1,3.2,1.357,5.877,5.877,0,0,1,1.143,3.887v.752h-7.158a3.756,3.756,0,0,0,.913,2.524,2.87,2.87,0,0,0,2.222.962,3.147,3.147,0,0,0,1.621-.391,4.073,4.073,0,0,0,1.162-1.035l1.1.859A4.437,4.437,0,0,1-24.346,24.2Zm-.225-9.473a2.41,2.41,0,0,0-1.836.8,3.868,3.868,0,0,0-.918,2.231h5.293v-.137a3.441,3.441,0,0,0-.742-2.134A2.269,2.269,0,0,0-24.57,14.723Zm9.795,6.826,2.617-8.115h1.846L-14.1,24h-1.377l-3.828-10.566h1.846ZM-6.611,24H-8.418V13.434h1.807ZM-8.564,10.631A1.078,1.078,0,0,1-8.3,9.889a1.008,1.008,0,0,1,.8-.3,1.024,1.024,0,0,1,.8.3,1.067,1.067,0,0,1,.273.742,1.032,1.032,0,0,1-.273.732,1.043,1.043,0,0,1-.8.293,1.026,1.026,0,0,1-.8-.293A1.043,1.043,0,0,1-8.564,10.631ZM.664,24.2a4.617,4.617,0,0,1-3.5-1.411A5.237,5.237,0,0,1-4.18,19.01v-.332a6.341,6.341,0,0,1,.6-2.808A4.685,4.685,0,0,1-1.9,13.937a4.223,4.223,0,0,1,2.339-.7,3.957,3.957,0,0,1,3.2,1.357,5.877,5.877,0,0,1,1.143,3.887v.752H-2.373a3.756,3.756,0,0,0,.913,2.524,2.87,2.87,0,0,0,2.222.962,3.147,3.147,0,0,0,1.621-.391,4.073,4.073,0,0,0,1.162-1.035l1.1.859A4.437,4.437,0,0,1,.664,24.2ZM.439,14.723a2.41,2.41,0,0,0-1.836.8,3.868,3.868,0,0,0-.918,2.231H2.979v-.137a3.441,3.441,0,0,0-.742-2.134A2.269,2.269,0,0,0,.439,14.723ZM16.23,21.51l2.031-8.076h1.807L16.992,24H15.527l-2.568-8.008L10.459,24H8.994L5.928,13.434h1.8l2.08,7.91,2.461-7.91h1.455ZM26.289,24.2a4.617,4.617,0,0,1-3.5-1.411,5.237,5.237,0,0,1-1.348-3.774v-.332a6.341,6.341,0,0,1,.6-2.808,4.685,4.685,0,0,1,1.68-1.934,4.223,4.223,0,0,1,2.339-.7,3.957,3.957,0,0,1,3.2,1.357,5.877,5.877,0,0,1,1.143,3.887v.752H23.252a3.756,3.756,0,0,0,.913,2.524,2.87,2.87,0,0,0,2.222.962,3.147,3.147,0,0,0,1.621-.391,4.073,4.073,0,0,0,1.162-1.035l1.1.859A4.437,4.437,0,0,1,26.289,24.2Zm-.225-9.473a2.41,2.41,0,0,0-1.836.8,3.868,3.868,0,0,0-.918,2.231H28.6v-.137a3.441,3.441,0,0,0-.742-2.134A2.269,2.269,0,0,0,26.064,14.723Zm6,3.906a6.19,6.19,0,0,1,1.152-3.911,3.921,3.921,0,0,1,5.957-.21V9h1.807V24h-1.66l-.088-1.133A3.679,3.679,0,0,1,36.211,24.2a3.609,3.609,0,0,1-2.993-1.5,6.26,6.26,0,0,1-1.157-3.926Zm1.807.205a4.687,4.687,0,0,0,.742,2.813,2.4,2.4,0,0,0,2.051,1.016,2.636,2.636,0,0,0,2.51-1.543V16.266a2.656,2.656,0,0,0-2.49-1.494,2.411,2.411,0,0,0-2.07,1.025A5.16,5.16,0,0,0,33.867,18.834Z" transform="translate(237 481)"/>
    </g>
    <line id="Line_25" data-name="Line 25" class="cls-5" y2="290" transform="translate(546.5 671.457)"/>
  </g>
</svg>
