<svg xmlns="http://www.w3.org/2000/svg" width="679.202" height="290" viewBox="0 0 679.202 290">
  <defs>
    <style>
      .cls-1 {
        fill: none;
        stroke: #5daae0;
        opacity: 0.25;
      }

      .cls-2, .cls-3, .cls-4 {
        fill: #fff;
      }

      .cls-2, .cls-4 {
        opacity: 0.6;
      }

      .cls-3 {
        opacity: 0.65;
      }

      .cls-4 {
        font-size: 20px;
        font-family: Roboto-Regular, Roboto;
      }
    </style>
  </defs>
  <g id="Credit_Risk_Alert" data-name="Credit Risk Alert" transform="translate(-1105.025 -181.458)">
    <g id="Group_1271" data-name="Group 1271">
      <line id="Line_25" data-name="Line 25" class="cls-1" y2="290" transform="translate(1602.5 181.458)"/>
      <line id="Line_39" data-name="Line 39" class="cls-1" y2="290" transform="translate(1306.5 181.458)"/>
    </g>
    <g id="Group_1269" data-name="Group 1269" transform="translate(26)">
      <path id="Path_2157" data-name="Path 2157" class="cls-2" d="M-21.553-5.752h-3.34V0h-1.885V-14.219h4.707a5.571,5.571,0,0,1,3.7,1.094A3.935,3.935,0,0,1-17.08-9.941,3.828,3.828,0,0,1-17.8-7.627a4.285,4.285,0,0,1-2,1.475l3.34,6.035V0h-2.012Zm-3.34-1.533h2.881a3.249,3.249,0,0,0,2.222-.724,2.448,2.448,0,0,0,.825-1.937,2.578,2.578,0,0,0-.786-2.025,3.329,3.329,0,0,0-2.271-.714h-2.871ZM-8.213,0a3.8,3.8,0,0,1-.254-1.113A4.031,4.031,0,0,1-11.475.2a3.73,3.73,0,0,1-2.563-.884,2.859,2.859,0,0,1-1-2.241,2.987,2.987,0,0,1,1.255-2.563,5.916,5.916,0,0,1,3.53-.913H-8.5v-.83a2.029,2.029,0,0,0-.566-1.509,2.276,2.276,0,0,0-1.67-.562,2.634,2.634,0,0,0-1.621.488,1.439,1.439,0,0,0-.654,1.182h-1.816a2.493,2.493,0,0,1,.562-1.528,3.832,3.832,0,0,1,1.523-1.167,5.125,5.125,0,0,1,2.114-.43,4.177,4.177,0,0,1,2.861.913A3.294,3.294,0,0,1-6.689-7.334v4.863A5.946,5.946,0,0,0-6.318-.156V0Zm-3-1.377A3.175,3.175,0,0,0-9.6-1.816,2.658,2.658,0,0,0-8.5-2.959V-5.127H-9.912q-3.32,0-3.32,1.943a1.645,1.645,0,0,0,.566,1.328A2.177,2.177,0,0,0-11.211-1.377Zm9.8-11.748v2.559H.566v1.4H-1.406v6.561a1.467,1.467,0,0,0,.264.953,1.11,1.11,0,0,0,.9.318,4.374,4.374,0,0,0,.859-.117V0A5.268,5.268,0,0,1-.771.2,2.25,2.25,0,0,1-2.6-.537a3.147,3.147,0,0,1-.615-2.08V-9.17H-5.137v-1.4h1.924v-2.559ZM4.639,0H2.832V-10.566H4.639ZM2.686-13.369a1.078,1.078,0,0,1,.269-.742,1.008,1.008,0,0,1,.8-.3,1.024,1.024,0,0,1,.8.3,1.067,1.067,0,0,1,.273.742,1.032,1.032,0,0,1-.273.732,1.043,1.043,0,0,1-.8.293,1.026,1.026,0,0,1-.8-.293A1.043,1.043,0,0,1,2.686-13.369Zm6.553,2.8L9.3-9.238a3.85,3.85,0,0,1,3.164-1.523q3.35,0,3.379,3.779V0H14.033V-6.992a2.432,2.432,0,0,0-.522-1.689,2.094,2.094,0,0,0-1.6-.547,2.607,2.607,0,0,0-1.543.469,3.183,3.183,0,0,0-1.035,1.23V0H7.529V-10.566Zm8.9,5.2A6.21,6.21,0,0,1,19.277-9.3a3.654,3.654,0,0,1,3.027-1.46,3.635,3.635,0,0,1,3.018,1.367l.088-1.172h1.65V-.254a4.3,4.3,0,0,1-1.216,3.232A4.487,4.487,0,0,1,22.578,4.16a5.435,5.435,0,0,1-2.236-.488,3.85,3.85,0,0,1-1.67-1.338l.938-1.084a3.533,3.533,0,0,0,2.842,1.436,2.768,2.768,0,0,0,2.056-.742,2.837,2.837,0,0,0,.737-2.09v-.908A3.713,3.713,0,0,1,22.285.2a3.609,3.609,0,0,1-3-1.494A6.529,6.529,0,0,1,18.135-5.371Zm1.816.205a4.738,4.738,0,0,0,.732,2.808,2.38,2.38,0,0,0,2.051,1.021,2.646,2.646,0,0,0,2.51-1.553V-7.715a2.677,2.677,0,0,0-2.49-1.514A2.4,2.4,0,0,0,20.693-8.2,5.16,5.16,0,0,0,19.951-5.166ZM-53.975,24V9.781h4.014a6.461,6.461,0,0,1,3.281.82,5.548,5.548,0,0,1,2.2,2.334,7.6,7.6,0,0,1,.786,3.477v.908a7.624,7.624,0,0,1-.776,3.525,5.461,5.461,0,0,1-2.217,2.324,6.873,6.873,0,0,1-3.354.83ZM-52.1,11.314V22.467h1.973a4.292,4.292,0,0,0,3.374-1.349,5.573,5.573,0,0,0,1.206-3.841v-.831a5.661,5.661,0,0,0-1.138-3.768,4.049,4.049,0,0,0-3.228-1.364Zm10.479,7.3a6.241,6.241,0,0,1,.61-2.793,4.553,4.553,0,0,1,1.7-1.914,4.626,4.626,0,0,1,2.485-.674,4.456,4.456,0,0,1,3.491,1.494A5.748,5.748,0,0,1-32,18.707v.127a6.3,6.3,0,0,1-.591,2.769,4.486,4.486,0,0,1-1.689,1.909,4.679,4.679,0,0,1-2.524.684A4.445,4.445,0,0,1-40.288,22.7a5.719,5.719,0,0,1-1.333-3.955Zm1.816.215a4.52,4.52,0,0,0,.815,2.822,2.61,2.61,0,0,0,2.183,1.064,2.594,2.594,0,0,0,2.188-1.079,4.943,4.943,0,0,0,.811-3.022,4.513,4.513,0,0,0-.825-2.817,2.623,2.623,0,0,0-2.192-1.079,2.594,2.594,0,0,0-2.158,1.064A4.906,4.906,0,0,0-39.8,18.834Zm19.424,2.676,2.031-8.076h1.807L-19.619,24h-1.465l-2.568-8.008L-26.152,24h-1.465l-3.066-10.566h1.8l2.08,7.91,2.461-7.91h1.455ZM-13,13.434l.059,1.328a3.85,3.85,0,0,1,3.164-1.523q3.35,0,3.379,3.779V24H-8.2V17.008a2.432,2.432,0,0,0-.522-1.689,2.094,2.094,0,0,0-1.6-.547,2.607,2.607,0,0,0-1.543.469,3.183,3.183,0,0,0-1.035,1.23V24h-1.807V13.434Zm8.9,5.2A6.21,6.21,0,0,1-2.959,14.7a3.654,3.654,0,0,1,3.027-1.46,3.635,3.635,0,0,1,3.018,1.367l.088-1.172h1.65V23.746a4.3,4.3,0,0,1-1.216,3.232A4.487,4.487,0,0,1,.342,28.16a5.435,5.435,0,0,1-2.236-.488,3.85,3.85,0,0,1-1.67-1.338l.938-1.084A3.533,3.533,0,0,0,.215,26.686a2.768,2.768,0,0,0,2.056-.742,2.837,2.837,0,0,0,.737-2.09v-.908A3.713,3.713,0,0,1,.049,24.2a3.609,3.609,0,0,1-3-1.494A6.529,6.529,0,0,1-4.1,18.629Zm1.816.205a4.738,4.738,0,0,0,.732,2.808A2.38,2.38,0,0,0,.5,22.662a2.646,2.646,0,0,0,2.51-1.553V16.285a2.677,2.677,0,0,0-2.49-1.514A2.4,2.4,0,0,0-1.543,15.8,5.16,5.16,0,0,0-2.285,18.834Zm14.941-3.779a5.414,5.414,0,0,0-.889-.068A2.381,2.381,0,0,0,9.355,16.5V24H7.549V13.434H9.307l.029,1.221a2.813,2.813,0,0,1,2.52-1.416,1.846,1.846,0,0,1,.8.137ZM20.449,24a3.8,3.8,0,0,1-.254-1.113A4.031,4.031,0,0,1,17.188,24.2a3.73,3.73,0,0,1-2.563-.884,2.859,2.859,0,0,1-1-2.241,2.987,2.987,0,0,1,1.255-2.563,5.916,5.916,0,0,1,3.53-.913h1.758v-.83a2.029,2.029,0,0,0-.566-1.509,2.276,2.276,0,0,0-1.67-.562,2.634,2.634,0,0,0-1.621.488,1.439,1.439,0,0,0-.654,1.182H13.838a2.493,2.493,0,0,1,.562-1.528,3.832,3.832,0,0,1,1.523-1.167,5.125,5.125,0,0,1,2.114-.43,4.177,4.177,0,0,1,2.861.913,3.294,3.294,0,0,1,1.074,2.515v4.863a5.946,5.946,0,0,0,.371,2.314V24Zm-3-1.377a3.175,3.175,0,0,0,1.611-.439,2.658,2.658,0,0,0,1.1-1.143V18.873H18.75q-3.32,0-3.32,1.943A1.645,1.645,0,0,0,16,22.145,2.177,2.177,0,0,0,17.451,22.623Zm6.914-3.994a6.19,6.19,0,0,1,1.152-3.911,3.921,3.921,0,0,1,5.957-.21V9h1.807V24h-1.66l-.088-1.133A3.679,3.679,0,0,1,28.516,24.2a3.609,3.609,0,0,1-2.993-1.5,6.26,6.26,0,0,1-1.157-3.926Zm1.807.205a4.687,4.687,0,0,0,.742,2.813,2.4,2.4,0,0,0,2.051,1.016,2.636,2.636,0,0,0,2.51-1.543V16.266a2.656,2.656,0,0,0-2.49-1.494,2.411,2.411,0,0,0-2.07,1.025A5.16,5.16,0,0,0,26.172,18.834Zm14.3,5.361a4.617,4.617,0,0,1-3.5-1.411,5.237,5.237,0,0,1-1.348-3.774v-.332a6.341,6.341,0,0,1,.6-2.808,4.685,4.685,0,0,1,1.68-1.934,4.223,4.223,0,0,1,2.339-.7,3.957,3.957,0,0,1,3.2,1.357,5.877,5.877,0,0,1,1.143,3.887v.752H37.432a3.756,3.756,0,0,0,.913,2.524,2.87,2.87,0,0,0,2.222.962,3.147,3.147,0,0,0,1.621-.391,4.073,4.073,0,0,0,1.162-1.035l1.1.859A4.437,4.437,0,0,1,40.469,24.2Zm-.225-9.473a2.41,2.41,0,0,0-1.836.8,3.868,3.868,0,0,0-.918,2.231h5.293v-.137a3.441,3.441,0,0,0-.742-2.134A2.269,2.269,0,0,0,40.244,14.723ZM52.832,21.2a1.33,1.33,0,0,0-.552-1.138,5.311,5.311,0,0,0-1.924-.7,9.1,9.1,0,0,1-2.178-.7,3.1,3.1,0,0,1-1.191-.977,2.336,2.336,0,0,1-.386-1.348,2.741,2.741,0,0,1,1.1-2.2,4.291,4.291,0,0,1,2.808-.9,4.415,4.415,0,0,1,2.915.928,2.947,2.947,0,0,1,1.118,2.373H52.725a1.631,1.631,0,0,0-.63-1.279,2.36,2.36,0,0,0-1.587-.537,2.47,2.47,0,0,0-1.543.43,1.353,1.353,0,0,0-.557,1.123,1.1,1.1,0,0,0,.518.986,6.368,6.368,0,0,0,1.87.635,9.744,9.744,0,0,1,2.192.723,3.2,3.2,0,0,1,1.245,1.011,2.485,2.485,0,0,1,.405,1.44,2.7,2.7,0,0,1-1.133,2.271,4.752,4.752,0,0,1-2.939.854,5.321,5.321,0,0,1-2.246-.449,3.653,3.653,0,0,1-1.528-1.255,3.025,3.025,0,0,1-.552-1.743h1.807a1.87,1.87,0,0,0,.728,1.44,2.822,2.822,0,0,0,1.792.532,2.913,2.913,0,0,0,1.646-.415A1.275,1.275,0,0,0,52.832,21.2Z" transform="translate(1133 422.258)"/>
      <path id="Path_2156" data-name="Path 2156" class="cls-3" d="M52.49,0H5.908V-6.494L30.518-33.838a58.465,58.465,0,0,0,7.544-10.083,16.828,16.828,0,0,0,2.075-8.032,12.756,12.756,0,0,0-3.369-9.131,11.78,11.78,0,0,0-8.984-3.564q-6.738,0-10.474,3.833T13.574-50.146H4.541q0-9.814,6.323-15.869T27.783-72.07q9.912,0,15.674,5.2t5.762,13.843q0,10.5-13.379,25L16.8-7.373H52.49Z" transform="translate(1105 329)"/>
    </g>
    <g id="Group_1268" data-name="Group 1268" transform="translate(-8)">
      <g id="Group_550" data-name="Group 550" transform="translate(981 -58.742)">
        <text id="Public_Financial_Updates" data-name="Public Financial
Updates" class="cls-4" transform="translate(482 481)"><tspan x="-69.951" y="0">Public Financial</tspan><tspan x="-36.895" y="24">Updates</tspan></text>
      </g>
      <path id="Path_2158" data-name="Path 2158" class="cls-3" d="M49.023-52.539a16.509,16.509,0,0,1-2.808,9.473,19.1,19.1,0,0,1-7.593,6.494,20.376,20.376,0,0,1,8.813,6.982,17.57,17.57,0,0,1,3.247,10.4q0,9.229-6.226,14.7T28.076.977q-10.254,0-16.431-5.493T5.469-19.189a18.1,18.1,0,0,1,3.149-10.4,19.6,19.6,0,0,1,8.716-7.031,18.632,18.632,0,0,1-7.471-6.494,16.744,16.744,0,0,1-2.734-9.424q0-8.984,5.762-14.258T28.076-72.07q9.375,0,15.161,5.273T49.023-52.539ZM41.65-19.385A13.1,13.1,0,0,0,37.866-29.1a13.42,13.42,0,0,0-9.888-3.76,13.185,13.185,0,0,0-9.79,3.711A13.252,13.252,0,0,0,14.5-19.385q0,6.055,3.589,9.521T28.076-6.4q6.348,0,9.961-3.491T41.65-19.385ZM28.076-64.648a11.655,11.655,0,0,0-8.618,3.3q-3.3,3.3-3.3,8.96a12.05,12.05,0,0,0,3.247,8.765,11.525,11.525,0,0,0,8.667,3.345,11.525,11.525,0,0,0,8.667-3.345,12.05,12.05,0,0,0,3.247-8.765,12.054,12.054,0,0,0-3.369-8.838A11.491,11.491,0,0,0,28.076-64.648Z" transform="translate(1435 329)"/>
    </g>
    <g id="Group_1270" data-name="Group 1270" transform="translate(-1)">
      <path id="Path_2159" data-name="Path 2159" class="cls-2" d="M-36.323,0V-14.219h4.648a5.4,5.4,0,0,1,3.481.957,3.449,3.449,0,0,1,1.167,2.832,2.888,2.888,0,0,1-.566,1.763A3.672,3.672,0,0,1-29.136-7.48a3.3,3.3,0,0,1,1.821,1.226A3.517,3.517,0,0,1-26.646-4.1a3.8,3.8,0,0,1-1.24,3.008A5.129,5.129,0,0,1-31.392,0Zm1.875-6.65v5.117h3.1a2.981,2.981,0,0,0,2.065-.679,2.384,2.384,0,0,0,.757-1.87q0-2.568-2.793-2.568Zm0-1.5h2.832a2.969,2.969,0,0,0,1.968-.617,2.067,2.067,0,0,0,.737-1.674,2.033,2.033,0,0,0-.684-1.708,3.357,3.357,0,0,0-2.08-.533h-2.773ZM-22.192,0H-24V-15h1.807Zm2.412-5.381a6.241,6.241,0,0,1,.61-2.793,4.553,4.553,0,0,1,1.7-1.914,4.626,4.626,0,0,1,2.485-.674,4.456,4.456,0,0,1,3.491,1.494,5.748,5.748,0,0,1,1.333,3.975v.127A6.3,6.3,0,0,1-10.752-2.4,4.486,4.486,0,0,1-12.441-.488,4.679,4.679,0,0,1-14.966.2,4.445,4.445,0,0,1-18.447-1.3,5.719,5.719,0,0,1-19.78-5.254Zm1.816.215a4.52,4.52,0,0,0,.815,2.822,2.61,2.61,0,0,0,2.183,1.064,2.594,2.594,0,0,0,2.188-1.079,4.943,4.943,0,0,0,.811-3.022A4.513,4.513,0,0,0-12.793-8.2a2.623,2.623,0,0,0-2.192-1.079,2.594,2.594,0,0,0-2.158,1.064A4.906,4.906,0,0,0-17.964-5.166ZM-3.657-1.279a2.6,2.6,0,0,0,1.689-.586,2.061,2.061,0,0,0,.8-1.465H.542A3.276,3.276,0,0,1-.083-1.6,4.116,4.116,0,0,1-1.621-.293,4.438,4.438,0,0,1-3.657.2,4.353,4.353,0,0,1-7.09-1.245a5.737,5.737,0,0,1-1.274-3.94v-.3A6.361,6.361,0,0,1-7.8-8.232,4.314,4.314,0,0,1-6.172-10.1a4.619,4.619,0,0,1,2.5-.664A4.238,4.238,0,0,1-.713-9.7,3.8,3.8,0,0,1,.542-6.934H-1.167a2.49,2.49,0,0,0-.776-1.685,2.415,2.415,0,0,0-1.724-.659A2.529,2.529,0,0,0-5.8-8.286,4.655,4.655,0,0,0-6.558-5.42v.342a4.562,4.562,0,0,0,.752,2.813A2.541,2.541,0,0,0-3.657-1.279Zm9.18-3.613L4.39-3.711V0H2.583V-15H4.39v9.072L5.356-7.09l3.291-3.477h2.2L6.733-6.152,11.323,0H9.2ZM16.9.2a4.617,4.617,0,0,1-3.5-1.411A5.237,5.237,0,0,1,12.056-4.99v-.332a6.341,6.341,0,0,1,.6-2.808,4.685,4.685,0,0,1,1.68-1.934,4.223,4.223,0,0,1,2.339-.7,3.957,3.957,0,0,1,3.2,1.357,5.877,5.877,0,0,1,1.143,3.887v.752H13.862a3.756,3.756,0,0,0,.913,2.524A2.87,2.87,0,0,0,17-1.279a3.147,3.147,0,0,0,1.621-.391A4.073,4.073,0,0,0,19.78-2.705l1.1.859A4.437,4.437,0,0,1,16.9.2Zm-.225-9.473a2.41,2.41,0,0,0-1.836.8,3.868,3.868,0,0,0-.918,2.231h5.293v-.137a3.441,3.441,0,0,0-.742-2.134A2.269,2.269,0,0,0,16.675-9.277Zm6,3.906a6.19,6.19,0,0,1,1.152-3.911,3.644,3.644,0,0,1,3.018-1.479,3.665,3.665,0,0,1,2.939,1.27V-15h1.807V0h-1.66l-.088-1.133A3.679,3.679,0,0,1,26.821.2a3.609,3.609,0,0,1-2.993-1.5,6.26,6.26,0,0,1-1.157-3.926Zm1.807.205a4.687,4.687,0,0,0,.742,2.813,2.4,2.4,0,0,0,2.051,1.016,2.636,2.636,0,0,0,2.51-1.543V-7.734a2.656,2.656,0,0,0-2.49-1.494A2.411,2.411,0,0,0,25.22-8.2,5.16,5.16,0,0,0,24.478-5.166ZM-21.636,24h-1.885l-7.158-10.957V24h-1.885V9.781h1.885L-23.5,20.787V9.781h1.865Zm2.568-5.381a6.241,6.241,0,0,1,.61-2.793,4.553,4.553,0,0,1,1.7-1.914,4.626,4.626,0,0,1,2.485-.674,4.456,4.456,0,0,1,3.491,1.494,5.748,5.748,0,0,1,1.333,3.975v.127a6.3,6.3,0,0,1-.591,2.769,4.486,4.486,0,0,1-1.689,1.909,4.679,4.679,0,0,1-2.524.684A4.445,4.445,0,0,1-17.734,22.7a5.719,5.719,0,0,1-1.333-3.955Zm1.816.215a4.52,4.52,0,0,0,.815,2.822,2.61,2.61,0,0,0,2.183,1.064,2.594,2.594,0,0,0,2.188-1.079,4.943,4.943,0,0,0,.811-3.022A4.513,4.513,0,0,0-12.08,15.8a2.623,2.623,0,0,0-2.192-1.079,2.594,2.594,0,0,0-2.158,1.064A4.906,4.906,0,0,0-17.251,18.834Zm12.52-7.959v2.559h1.973v1.4H-4.731v6.561a1.467,1.467,0,0,0,.264.953,1.11,1.11,0,0,0,.9.318,4.374,4.374,0,0,0,.859-.117V24A5.268,5.268,0,0,1-4.1,24.2a2.25,2.25,0,0,1-1.826-.732,3.147,3.147,0,0,1-.615-2.08V14.83H-8.462v-1.4h1.924V10.875ZM1.313,24H-.493V13.434H1.313ZM-.64,10.631a1.078,1.078,0,0,1,.269-.742,1.008,1.008,0,0,1,.8-.3,1.024,1.024,0,0,1,.8.3,1.067,1.067,0,0,1,.273.742,1.032,1.032,0,0,1-.273.732,1.043,1.043,0,0,1-.8.293,1.026,1.026,0,0,1-.8-.293A1.043,1.043,0,0,1-.64,10.631Zm9.082,12.09a2.6,2.6,0,0,0,1.689-.586,2.061,2.061,0,0,0,.8-1.465h1.709a3.276,3.276,0,0,1-.625,1.729,4.116,4.116,0,0,1-1.538,1.309,4.438,4.438,0,0,1-2.036.488,4.353,4.353,0,0,1-3.433-1.44,5.737,5.737,0,0,1-1.274-3.94v-.3A6.361,6.361,0,0,1,4.3,15.768,4.314,4.314,0,0,1,5.928,13.9a4.619,4.619,0,0,1,2.5-.664A4.238,4.238,0,0,1,11.387,14.3a3.8,3.8,0,0,1,1.255,2.764H10.933a2.49,2.49,0,0,0-.776-1.685,2.415,2.415,0,0,0-1.724-.659,2.529,2.529,0,0,0-2.134.991,4.655,4.655,0,0,0-.757,2.866v.342a4.562,4.562,0,0,0,.752,2.813A2.541,2.541,0,0,0,8.442,22.721ZM19.058,24.2a4.617,4.617,0,0,1-3.5-1.411,5.237,5.237,0,0,1-1.348-3.774v-.332a6.341,6.341,0,0,1,.6-2.808,4.685,4.685,0,0,1,1.68-1.934,4.223,4.223,0,0,1,2.339-.7,3.957,3.957,0,0,1,3.2,1.357,5.877,5.877,0,0,1,1.143,3.887v.752H16.021a3.756,3.756,0,0,0,.913,2.524,2.87,2.87,0,0,0,2.222.962,3.147,3.147,0,0,0,1.621-.391,4.073,4.073,0,0,0,1.162-1.035l1.1.859A4.437,4.437,0,0,1,19.058,24.2Zm-.225-9.473a2.41,2.41,0,0,0-1.836.8,3.868,3.868,0,0,0-.918,2.231h5.293v-.137a3.441,3.441,0,0,0-.742-2.134A2.269,2.269,0,0,0,18.833,14.723ZM31.421,21.2a1.33,1.33,0,0,0-.552-1.138,5.311,5.311,0,0,0-1.924-.7,9.1,9.1,0,0,1-2.178-.7,3.1,3.1,0,0,1-1.191-.977,2.336,2.336,0,0,1-.386-1.348,2.741,2.741,0,0,1,1.1-2.2,4.291,4.291,0,0,1,2.808-.9,4.415,4.415,0,0,1,2.915.928,2.947,2.947,0,0,1,1.118,2.373H31.313a1.631,1.631,0,0,0-.63-1.279,2.36,2.36,0,0,0-1.587-.537,2.47,2.47,0,0,0-1.543.43A1.353,1.353,0,0,0,27,16.275a1.1,1.1,0,0,0,.518.986,6.368,6.368,0,0,0,1.87.635,9.744,9.744,0,0,1,2.192.723,3.2,3.2,0,0,1,1.245,1.011,2.485,2.485,0,0,1,.405,1.44,2.7,2.7,0,0,1-1.133,2.271,4.752,4.752,0,0,1-2.939.854,5.321,5.321,0,0,1-2.246-.449,3.653,3.653,0,0,1-1.528-1.255,3.025,3.025,0,0,1-.552-1.743h1.807a1.87,1.87,0,0,0,.728,1.44,2.822,2.822,0,0,0,1.792.532,2.913,2.913,0,0,0,1.646-.415A1.275,1.275,0,0,0,31.421,21.2Z" transform="translate(1752 422.258)"/>
      <path id="Path_2160" data-name="Path 2160" class="cls-3" d="M35.6,0H26.514V-60.205L8.3-53.516v-8.2L34.18-71.436H35.6Z" transform="translate(1724 329)"/>
    </g>
  </g>
</svg>
