<svg xmlns="http://www.w3.org/2000/svg" width="70.107" height="41.265" viewBox="0 0 70.107 41.265"><defs><style>.a{opacity:0.5;}.b{fill:#fff;}</style></defs><g class="a" transform="translate(-1827.893 -188.584)"><path class="b" d="M96.41,125H57.236a7.128,7.128,0,0,0-4.728,1.792l-17.6,15.58a4.355,4.355,0,0,0,0,6.521l17.6,15.58a7.127,7.127,0,0,0,4.728,1.792H96.41a7.142,7.142,0,0,0,7.134-7.134v-27A7.142,7.142,0,0,0,96.41,125Zm3.984,34.131a3.988,3.988,0,0,1-3.984,3.984H57.236a3.98,3.98,0,0,1-2.64-1l-17.6-15.58a1.2,1.2,0,0,1,0-1.8l17.6-15.58a3.98,3.98,0,0,1,2.64-1H96.41a3.988,3.988,0,0,1,3.984,3.984v27Z" transform="translate(1794.456 63.584)"/><path class="b" d="M254.647,205.331l6.232-6.41a1.549,1.549,0,1,0-2.221-2.16l-6.226,6.4-6.408-6.265a1.549,1.549,0,1,0-2.166,2.215l6.414,6.272-6.192,6.369a1.549,1.549,0,0,0,2.221,2.16l6.186-6.362,6.365,6.224a1.549,1.549,0,1,0,2.166-2.215Z" transform="translate(1617.763 3.67)"/></g></svg>