<svg xmlns="http://www.w3.org/2000/svg" width="36" height="36" viewBox="0 0 36 36"><defs><style>.a{fill:#2d4250;}.b{fill:#5daae0;}</style></defs><g transform="translate(-49 -150)"><circle class="a" cx="18" cy="18" r="18" transform="translate(49 150)"/><path class="b" d="M19.1,1.3a18,18,0,1,0,18,18A18,18,0,0,0,19.1,1.3Zm0,32.945A14.963,14.963,0,1,1,34.082,19.3,14.995,14.995,0,0,1,19.1,34.245Z" transform="translate(47.9 148.7)"/><g transform="translate(61 157)"><path class="b" d="M0,7.259C0,4.824,1.9,2.948,4.173,2.17V0H7.5V1.764a7.571,7.571,0,0,1,4.156,1.583q-.534,2.015-1.072,4.029c-1.07-.835-5.838-3.034-6.453-.681-.6,2.536,7.9,2.814,7.9,8.1,0,2.437-1.893,4.313-4.171,5.09v2.17H4.535V20.289A7.6,7.6,0,0,1,.377,18.7l1.074-4.026c1.07.835,5.838,3.034,6.45.681C8.506,12.821,0,12.545,0,7.259Z"/></g></g></svg>