<svg xmlns="http://www.w3.org/2000/svg" width="44" height="43.999" viewBox="0 0 44 43.999">
  <g id="Group_984" data-name="Group 984" transform="translate(-216.999 -291)">
    <g id="Symbol_275_151" data-name="Symbol 275 – 151" transform="translate(-678 -227)">
      <circle id="Ellipse_64" data-name="Ellipse 64" cx="18" cy="18" r="18" transform="translate(899.499 522.001)" fill="#fff"/>
      <path id="Subtraction_4" data-name="Subtraction 4" d="M1226,11643a22,22,0,1,1,15.557-6.443A21.854,21.854,0,0,1,1226,11643Zm-11-33a2.747,2.747,0,0,0-2.738,2.75l-.012,16.5a2.753,2.753,0,0,0,2.75,2.75h22a2.753,2.753,0,0,0,2.75-2.75v-16.5a2.753,2.753,0,0,0-2.75-2.75Zm22,19.25h-22V11615.5l11,6.873,11-6.873v13.747Zm-11-9.625h0l-11-6.875h22l-11,6.875Z" transform="translate(-309 -11081)" fill="#5daae0"/>
    </g>
  </g>
</svg>
