<svg xmlns="http://www.w3.org/2000/svg" width="89" height="56.506" viewBox="0 0 89 56.506"><defs><style>.a{opacity:0.6;}.b{fill:#fff;}</style></defs><g class="a" transform="translate(-485.956 -307)"><path class="b" d="M12.847,53.952a.758.758,0,0,1-.5-.2L6.4,49.883a.966.966,0,0,1-.3-1.29L20.885,22.3a1.459,1.459,0,0,1,.6-.5,1.054,1.054,0,0,1,.794.1l5.954,3.87a.966.966,0,0,1,.3,1.29L13.74,53.456a1.459,1.459,0,0,1-.6.5Z" transform="translate(480 285.241)"/><path class="b" d="M54.414,76.748a8.965,8.965,0,0,1-2.779-.4,11.869,11.869,0,0,1-3.374-1.588c-1.29-.893-.794-2.282-.6-3.076.1-.2.1-.5.2-.6a3.365,3.365,0,0,0-1.29-2.481,2.523,2.523,0,0,0-1.985-.6l-.2.1a2.251,2.251,0,0,0-.4.1.9.9,0,0,1-1.092.1.87.87,0,0,1-.5-.992,9.368,9.368,0,0,1,.3-.893,1.84,1.84,0,0,0,.2-.695,2.857,2.857,0,0,0-.1-1.29,2.6,2.6,0,0,0-1.588-1.786c-.794-.3-2.183-.3-2.58.2h0a.992.992,0,0,1-1.588-1.191,2.722,2.722,0,0,0,.6-2.084A3.749,3.749,0,0,0,36.254,56.9a3.43,3.43,0,0,0-2.58-.695A6.012,6.012,0,0,0,31.59,57.3,18.338,18.338,0,0,0,30.2,58.688l-.3.1a1.352,1.352,0,0,1-1.29.5c-.794-.2-1.092-.992-1.29-1.588,0-.1-.1-.2-.1-.3a5.454,5.454,0,0,0-.695-.893,4.022,4.022,0,0,0-.893-.5,1.259,1.259,0,0,0-.6-.1h-.1c-.4,0-.794.1-1.092-.2a2.751,2.751,0,0,0-.893-.5c-.2-.1-.4-.3-.794-.5l-.2-.1c-2.878-1.687-5.458-3.572-4.466-5.259.1-.1,9.924-17.763,9.924-17.763a.884.884,0,0,1,.794-.5,1.6,1.6,0,0,1,.893.3c2.779,3.076,7.74,2.977,7.84,2.977a1.042,1.042,0,0,1,.893.5,1.1,1.1,0,0,1-.1,1.092c-3.374,4.565-4.168,7.244-4.168,7.244a2.961,2.961,0,0,0,.4,2.382,2.964,2.964,0,0,0,2.779.695,12.825,12.825,0,0,0,8.038-4.366,10.981,10.981,0,0,1,3.771-2.779c2.183-.794,4.565.794,6.351,1.985a9.152,9.152,0,0,0,.794.5c4.664,2.878,9.229,6.053,13.6,9.229,2.183,1.588,4.267,3.275,6.351,5.061h0l.2.2c1.092.893,3.076,2.58,2.084,4.664a3.656,3.656,0,0,1-4.069,1.786,10.3,10.3,0,0,1-.992-.4L69.7,60.275l-3.275-2.084c-1.092-.695-2.183-1.389-3.275-1.985-.3-.2-.5-.3-.794-.5a17.261,17.261,0,0,1-1.786-1.092c-.695-.5-1.191-.794-1.588-.6-.2.1-.3.2-.3.4a1.327,1.327,0,0,0,.1.893A8.738,8.738,0,0,0,61.658,57.3l.5.3c2.779,1.389,5.359,2.977,7.542,4.267.992.6,2.282,1.29,2.183,3.076a2.966,2.966,0,0,1-1.786,2.679c-1.885.695-4.168-.4-5.061-.893L56.5,61.764c-.4-.2-1.389-.794-1.588-.5v.1a1.5,1.5,0,0,0,.4.794,7.784,7.784,0,0,0,1.786,1.092l.4.2c1.588.893,3.275,1.786,5.259,3.076l.3.2c1.29.695,3.87,2.282,2.779,4.664a2.754,2.754,0,0,1-1.489,1.29,4.64,4.64,0,0,1-3.275-.1c-1.389-.695-2.679-1.389-3.969-2.084-.794-.4-1.687-.893-2.58-1.29l-.1-.1a9.212,9.212,0,0,0-2.58-.992,1.157,1.157,0,0,0-.695.2c-.1.1,0,.3.1.4A4.781,4.781,0,0,0,53.719,70.2l.695.3c1.092.4,2.183.893,3.275,1.29a3.365,3.365,0,0,1,2.183,1.588,1.8,1.8,0,0,1-.3,1.389,4.169,4.169,0,0,1-1.786,1.29A8.227,8.227,0,0,1,54.414,76.748Z" transform="translate(479.913 285.17)"/><path class="b" d="M77.369,55.6a1.064,1.064,0,0,1-.6-.2A136.561,136.561,0,0,0,54.148,39.329c-3.176-1.786-5.656-1.786-8.038.1a21.153,21.153,0,0,0-2.183,2.084,11.994,11.994,0,0,1-4.664,3.572c-.794.3-2.58.893-3.87.3A1.43,1.43,0,0,1,34.5,44.29c-.2-.794.1-2.282,3.275-6.748,1.786-2.382,3.672-4.664,4.069-5.061C43.332,30.894,45.614,30.6,47.5,30.4h.2a44.128,44.128,0,0,1,11.412.1c1.389.2,2.779.5,4.069.794.992.2,2.084.5,3.076.695a9.08,9.08,0,0,0,3.275,0,2.336,2.336,0,0,0,.794-.2,3.812,3.812,0,0,1,2.58,0c1.588.695,2.779,2.679,3.473,4.069l.1.3h0c1.092,1.985,2.183,3.87,3.275,5.855.695,1.191,1.389,2.481,1.985,3.672,0,.1.1.2.3.4,2.084,3.473,2.382,3.969,1.786,4.565-.4.4-3.771,4.069-6.053,4.962Z" transform="translate(479.782 285.178)"/><path class="b" d="M88.277,53.953h-.3c-.3-.1-.5-.2-.6-.5L72.5,26.861a.876.876,0,0,1,.4-1.29L78.949,22a1.054,1.054,0,0,1,.794-.1c.3.1.5.2.6.5l14.985,26.4a1,1,0,0,1-.4,1.389l-6.053,3.572A1.411,1.411,0,0,1,88.277,53.953Z" transform="translate(479.493 285.241)"/><path class="b" d="M28.881,70.1a2,2,0,0,1-1.092-.3,2.6,2.6,0,0,1-1.29-3.176h0a13.189,13.189,0,0,1,2.779-5.359,4.2,4.2,0,0,0,.5-.695A7.658,7.658,0,0,1,33.247,57.4a2.52,2.52,0,0,1,1.885.2,2.844,2.844,0,0,1,1.29,1.985c.3,1.885-.695,3.572-1.885,5.061-1.092,1.389-2.183,2.878-3.374,4.168A2.769,2.769,0,0,1,28.881,70.1Z" transform="translate(479.844 284.97)"/><path class="b" d="M35.882,74.42a1.907,1.907,0,0,1-1.191-.4,2.832,2.832,0,0,1-1.191-2.58c.1-1.786,1.389-3.473,2.481-4.863l.3-.4c.794-.992,1.687-2.084,2.878-2.183a2.179,2.179,0,0,1,1.786.695,2.437,2.437,0,0,1,.794,2.084,8.118,8.118,0,0,1-1.985,4.267c-.1.2-.3.4-.4.6a8.631,8.631,0,0,1-2.679,2.679A1.935,1.935,0,0,1,35.882,74.42Z" transform="translate(479.79 284.919)"/><path class="b" d="M41.982,78.629a2.209,2.209,0,0,1-1.29-.4,3.528,3.528,0,0,1-.992-2.977h0a3.427,3.427,0,0,1,.5-1.786c1.092-1.985,2.679-4.366,4.466-3.969a3.228,3.228,0,0,1,2.382,2.382c.2,2.084-2.084,6.153-4.267,6.748Z" transform="translate(479.742 284.877)"/><path class="b" d="M23.481,64.445c-1.29,0-2.183-.893-2.481-2.58V61.17h0A4.079,4.079,0,0,1,23.878,57.4a2.319,2.319,0,0,1,2.084.5,3.291,3.291,0,0,1,1.29,2.58,4.247,4.247,0,0,1-3.572,3.969Z" transform="translate(479.885 284.97)"/></g></svg>