<svg id="Layer_2" data-name="Layer 2" xmlns="http://www.w3.org/2000/svg" viewBox="0 0 250 65"><defs><style>.cls-1,.cls-2{fill:#fff;}.cls-1{fill-rule:evenodd;}</style></defs><title>HRC White -logo</title><path class="cls-1" d="M62.8,21.2a17.1,17.1,0,0,1,4.7-1.5c4.2-.5,8.6,1.6,8.8,7.2s0,9.7,0,14.5c0,1-.3,1.7-1.4,1.8s-1.6-.7-1.7-1.8V27.5c.1-3.4-2.2-5.2-5.5-5a8.7,8.7,0,0,0-4.1,1.4,1.5,1.5,0,0,0-.8,1.5V40.5a6.1,6.1,0,0,1-.1,1.4c-.3.9-.8,1.4-1.7,1.3s-1.3-.7-1.3-1.7V12.6c0-1.5.4-1.9,1.5-2s1.6.5,1.6,2v8.6Z"/><path class="cls-1" d="M120.9,21.1a20.2,20.2,0,0,1,3.2-1.1,8.5,8.5,0,0,1,5,0,6.9,6.9,0,0,1,5.1,6.8c.1,4.9,0,9.8.1,14.8a1.5,1.5,0,0,1-1.3,1.6,1.6,1.6,0,0,1-1.8-1.4,4,4,0,0,1,0-1.1V27.4c0-3.7-2.9-5.2-6-4.9l-1.4.4c-2.7.7-3.1,1.2-3.1,4V40.6a4.4,4.4,0,0,1-.2,1.6,1.3,1.3,0,0,1-1.6,1,1.3,1.3,0,0,1-1.2-1.5V12.4c0-1.4.7-2.1,1.9-1.8s1.1,1.2,1.1,2c.1,2.5,0,4.9.1,7.3,0,.4-.2.8.1,1.2"/><path class="cls-1" d="M228.6,31v9.2a2,2,0,0,1-1.3,2.1c-3.5,1.1-7.1,1.8-10.7.5a6.6,6.6,0,0,1-4.6-6.1V21.4a1.4,1.4,0,0,1,1.3-1.5,1.4,1.4,0,0,1,1.6,1.1,3.9,3.9,0,0,1,.2,1.5c0,4.2.1,8.4,0,12.5s2.8,6,6.5,5.6l2.9-.5c.8-.1,1.1-.5,1.1-1.3-.1-5.4-.1-10.8-.1-16.2a5,5,0,0,1,.2-1.7,1.6,1.6,0,0,1,1.7-1,1.4,1.4,0,0,1,1.2,1.5V31"/><path class="cls-1" d="M242.5,19.9a13.7,13.7,0,0,1,4.9,1.1c.8.3,1.6.8,1.1,1.9s-1.2,1-2.1.7-3.7-1.3-5.8-.7-2.7,1.6-2.7,3a3,3,0,0,0,2.1,3l5.6,2.5a5.9,5.9,0,0,1,3.6,6.7,6.6,6.6,0,0,1-5.4,5.2,14.2,14.2,0,0,1-7.9-1.1,1.5,1.5,0,0,1-.9-2,1.2,1.2,0,0,1,1.8-.6,26.6,26.6,0,0,0,3.8,1c2.4.4,4.9-.7,5.5-2.7a3.2,3.2,0,0,0-1.4-3.6c-1.7-1.2-3.8-1.8-5.7-2.7-3.8-1.6-4.8-4.5-3.7-7.9s3.6-3.9,7.2-3.8"/><path class="cls-1" d="M141.6,33.3c0-2.5,0-5-.1-7.5-.1-4.4,3.4-6.6,7.4-6.1l1.7.2c1,.3,1.6,1,1.4,1.9s-1.1,1.1-2,1-1.9-.5-2.9-.2-2.5,1.4-2.5,3.1V40.6a3.9,3.9,0,0,1-.2,1.5,1.5,1.5,0,0,1-2.9-.4c.1-2.8.1-5.6.1-8.4"/><path class="cls-1" d="M83.6,31.3V21.4c0-1,.4-1.6,1.3-1.7s1.5.5,1.7,1.4a4.9,4.9,0,0,1,.1,1.2V40.6a3.4,3.4,0,0,1-.2,1.4,1.4,1.4,0,0,1-1.6,1.2c-.9-.1-1.3-.6-1.3-1.6V31.3"/><path class="cls-1" d="M201.9,31.5c0-3.3,0-6.6-.1-9.9,0-1,.4-1.6,1.4-1.7a1.4,1.4,0,0,1,1.6,1.4,4.9,4.9,0,0,1,.1,1.2V40.8a3.9,3.9,0,0,1-.2,1.5,1.5,1.5,0,0,1-1.5,1.2,1.3,1.3,0,0,1-1.3-1.6V31.5"/><path class="cls-2" d="M110.1,34V23.2a2.2,2.2,0,0,0-1.7-2.5,21.9,21.9,0,0,0-8.8-.9,7.5,7.5,0,0,0-6.3,6.9v9.5a7.1,7.1,0,0,0,4.9,6.5,10,10,0,0,0,8.1-.7c.6-.4.8-.3.8.4s0,2-.1,3.1a4.6,4.6,0,0,1-4.6,4.6,11.9,11.9,0,0,1-5.6-1c-.8-.3-1.7-.4-2.2.6s.2,1.6,1.1,2a18.1,18.1,0,0,0,3.1.9,11,11,0,0,0,5.4,0c3.9-1,5.8-3.9,5.9-7.8S110.1,37.6,110.1,34Zm-3.8,4.9c-2.4,1.5-4.8,2.1-7.5.9a4.2,4.2,0,0,1-2.4-3.9V27.7c0-3.2,1.7-5,4.9-5.2a16.1,16.1,0,0,1,4.9.6.9.9,0,0,1,.8,1.1V31c0,2.1,0,4.2.1,6.3A1.5,1.5,0,0,1,106.3,38.9Z"/><path class="cls-2" d="M194.5,12.7c0-1.3-.5-1.9-1.6-1.8s-1.4.5-1.4,1.8-.1,5.2,0,7.8c0,1-.3,1.1-1.1.6a7.6,7.6,0,0,0-3.5-1.1c-4.4-.6-8.9,1.7-9.1,7.1-.2,3.1-.1,6.3,0,9.4a7.1,7.1,0,0,0,5.3,6.6,18.1,18.1,0,0,0,9.5-.6c1.7-.5,1.9-1,1.9-2.8v-27ZM190.8,40c-2.1.5-4.2,1-6.4.4a4.5,4.5,0,0,1-3.6-4.5V27.8a4.9,4.9,0,0,1,6.2-5l1.3.2c2.8.9,3.2,1.4,3.2,4.3V39C191.5,39.5,191.4,39.9,190.8,40Z"/><path class="cls-2" d="M171.1,25.8a5.6,5.6,0,0,0-2.4-4.6c-3.9-2.4-7.7-1.8-11.6-.1-.8.4-1.6.9-1.1,2s1.2,1.2,2.3.6a15,15,0,0,1,3.6-1.1c3.8-.8,6.2,1.1,6.2,4.9,0,2.1.2,1.8-1.9,1.8a25,25,0,0,0-7.7.9,6,6,0,0,0-4.1,5.9c-.1,2.6.7,4.8,3.4,6s8.2,1.3,12.3-.1c.8-.3,1-.9,1-1.8V33C171.1,30.6,171.2,28.2,171.1,25.8Zm-3,10.2v1.9c0,1.8,0,1.9-1.9,2.2a13.7,13.7,0,0,1-5.7,0,3.7,3.7,0,0,1-3.1-4,4.3,4.3,0,0,1,3.8-3.7c2-.3,4-.2,6-.3a.8.8,0,0,1,.9.9C168,34,168.1,35,168.1,36Z"/><path class="cls-2" d="M205.8,14.3a2.4,2.4,0,0,1-4.8,0,2.4,2.4,0,0,1,4.8,0"/><path class="cls-2" d="M87.5,14.3a2.4,2.4,0,1,1-4.7,0A2.3,2.3,0,0,1,85.1,12a2.3,2.3,0,0,1,2.4,2.3"/><path class="cls-2" d="M142.5,60.2h-.1a.1.1,0,0,0-.1.1h-.8V53.3h1Z"/><path class="cls-2" d="M148.9,60.2h-.7a.1.1,0,0,1-.1-.1H148V57.3c0-.3-.1-.5-.1-.7s-.1-.3-.2-.4-.2-.3-.4-.3h-.5a1.1,1.1,0,0,0-.7.2,4.6,4.6,0,0,0-.7.7v3.5h-1v-5h0a.1.1,0,0,1,.1-.1h.8v.7a2.8,2.8,0,0,1,.9-.7l.8-.2h.9c.3.2.5.3.6.5a1.5,1.5,0,0,1,.3.7,2.2,2.2,0,0,1,.1.9Z"/><path class="cls-2" d="M153.3,59.8a.4.4,0,0,1-.1.3h-1.6a.5.5,0,0,1-.5-.3.8.8,0,0,1-.2-.5,1.9,1.9,0,0,1-.1-.8V55.8h-.9c0-.1-.1-.2-.1-.3a.3.3,0,0,1,.1-.2h0c0-.1,0-.1.1-.1h.8V53.9h.9v1.2h1.4c.1,0,.1,0,.1.1h0c.1,0,.1.1.1.2s-.1.2-.1.3h-1.5v2.8a1.5,1.5,0,0,0,.2.8.6.6,0,0,0,.6.3h.8Z"/><path class="cls-2" d="M158.8,57.5a.4.4,0,0,1-.1.3c0,.1-.1.1-.2.1H155c0,.3.1.5.1.7a1.6,1.6,0,0,0,.3.6l.5.4h2.7v.2h-.1c0,.1-.1.1-.2.1l-.4.2h-2.4l-.8-.5a2.6,2.6,0,0,1-.5-.9,3.7,3.7,0,0,1-.2-1.2,3.6,3.6,0,0,1,.2-1.1,2.6,2.6,0,0,1,.5-.9l.8-.5a2,2,0,0,1,1.1-.2,1.6,1.6,0,0,1,1,.2,1.8,1.8,0,0,1,.7.5,1.6,1.6,0,0,1,.4.7,2.8,2.8,0,0,1,.1.9Zm-.9-.3a1.8,1.8,0,0,0-.3-1.1,1.4,1.4,0,0,0-1.1-.4h-.6a1,1,0,0,0-.5.4l-.3.4c0,.2-.1.4-.1.6Z"/><path class="cls-2" d="M164.7,55.5a.3.3,0,0,1-.1.2h-.9a1.3,1.3,0,0,1,.3.5.7.7,0,0,1,.1.5,1.9,1.9,0,0,1-.2.7l-.4.6-.6.3-.8.2h-.6l-.5-.2c-.1,0-.1.1-.2.2v.3c0,.1,0,.2.2.3h2.5l.6.3a.8.8,0,0,1,.4.4.7.7,0,0,1,.1.5,1.5,1.5,0,0,1-.1.7,1.2,1.2,0,0,1-.5.5,2,2,0,0,1-.8.4l-1.1.2-1.1-.2-.7-.2a.7.7,0,0,1-.4-.5.8.8,0,0,1-.2-.5.4.4,0,0,1,.1-.3c0-.2,0-.3.1-.4s.2-.2.2-.3l.4-.2c-.2-.1-.4-.2-.4-.4a.8.8,0,0,1-.2-.4.8.8,0,0,1,.2-.6l.3-.5-.3-.5c0-.1-.1-.4-.1-.6a2.4,2.4,0,0,1,.2-.8,1,1,0,0,1,.4-.5l.6-.4h3.3a.1.1,0,0,1,.1.1A.4.4,0,0,1,164.7,55.5Zm-1.1,5.2c0-.2,0-.4-.2-.5l-.8-.2h-1.3l-.3.2c-.1.1-.2.2-.2.3s-.1.1-.1.2v.2a.7.7,0,0,0,.3.6l1.1.2h.7l.5-.2.3-.3Zm-.4-3.9a1,1,0,0,0-.3-.8,1.2,1.2,0,0,0-.9-.3h-.4l-.4.2c-.1.1-.1.2-.2.4s-.1.2-.1.4a1.1,1.1,0,0,0,.3.8,1.2,1.2,0,0,0,.9.3h.5l.3-.3.2-.3C163.1,57,163.2,56.9,163.2,56.8Z"/><path class="cls-2" d="M168.9,55.6v.2h-.6c0-.1-.1-.1-.2-.1h-.3l-.3.2-.3.3-.4.5v3.3h-.9v-5h0c0-.1,0-.1.1-.1h.8V56a1,1,0,0,1,.4-.5l.3-.3.3-.2h.8a.1.1,0,0,1,.1.1h.2v.4Z"/><path class="cls-2" d="M173.7,60.2h-.8v-.5l-.8.5c-.2.2-.5.2-.9.2h-.7a.9.9,0,0,1-.6-.3l-.3-.4a1.3,1.3,0,0,1,0-1.4,1.2,1.2,0,0,1,.5-.5,1.4,1.4,0,0,1,.9-.3h1.8v-.4a4.3,4.3,0,0,0-.1-.5.7.7,0,0,0-.6-.6h-1.2l-.5.2-.3.2h-.4v-.2c0-.1.1-.1.1-.2l.3-.2h.4l.6-.2h1.5l.7.4.3.5a2.5,2.5,0,0,1,.1.9Zm-.9-2.3h-1.5l-.5.2-.3.3c-.1.1-.1.2-.1.4a.9.9,0,0,0,.3.6c.1.2.4.2.7.2a1,1,0,0,0,.7-.2l.7-.5Z"/><path class="cls-2" d="M178.1,59.8v.3a.1.1,0,0,0-.1.1h-1.6c-.2,0-.3-.1-.5-.3a.8.8,0,0,1-.2-.5,1.9,1.9,0,0,1-.1-.8V55.8h-.9v-.5h0a.1.1,0,0,1,.1-.1h.8V53.9h.9a.1.1,0,0,0,.1.1v1.2h1.5v.2a.4.4,0,0,1-.1.3h-1.4v2.8a1.7,1.7,0,0,0,.1.8.6.6,0,0,0,.6.3h.4a.1.1,0,0,0,.1-.1h.2c.1,0,.1,0,.1.1Z"/><path class="cls-2" d="M183.7,57.5c0,.1-.1.2-.1.3h-3.7v.7a1.6,1.6,0,0,0,.3.6l.6.4h2.6c0,.1.1.1.1.2h-.2c0,.1,0,.1-.1.1l-.4.2h-2.4a2.6,2.6,0,0,1-.9-.5l-.5-.9a4.1,4.1,0,0,1-.1-1.2,3.7,3.7,0,0,1,.1-1.1l.5-.9.8-.5a2,2,0,0,1,1.1-.2,1.6,1.6,0,0,1,1,.2,1.8,1.8,0,0,1,.7.5,1,1,0,0,1,.4.7,2.9,2.9,0,0,1,.2.9Zm-1-.3a1.8,1.8,0,0,0-.3-1.1,1.4,1.4,0,0,0-1.1-.4h-.6a.8.8,0,0,0-.4.4.5.5,0,0,0-.3.4,1.3,1.3,0,0,0-.1.6Z"/><path class="cls-2" d="M189.6,60.2h-.9v-.7a2.7,2.7,0,0,1-.8.7,2.6,2.6,0,0,1-2,0,1.5,1.5,0,0,1-.6-.5,3.6,3.6,0,0,1-.4-.9,3.4,3.4,0,0,1-.1-1,4.5,4.5,0,0,1,.1-1.2,4.1,4.1,0,0,1,.5-.9,1.8,1.8,0,0,1,.7-.5,1.5,1.5,0,0,1,.9-.2,1.3,1.3,0,0,1,.9.2l.7.5V52.8h1Zm-1-3.5a4.6,4.6,0,0,0-.7-.7,1.2,1.2,0,0,0-.8-.2h-.6a1,1,0,0,0-.4.5.8.8,0,0,0-.2.6,1.5,1.5,0,0,0-.1.7v.7a3.3,3.3,0,0,0,.3.6,1,1,0,0,0,.4.5l.6.2h.4l.3-.2a.5.5,0,0,0,.4-.3c.1-.1.3-.2.4-.4Z"/><path class="cls-2" d="M199.2,60.2h-1.1v-.2l-.7-1.6-.3-.6a.5.5,0,0,0-.3-.4l-.4-.3h-1.2v3.1h-.8a.1.1,0,0,0-.1-.1h-.1V53.6c0-.2,0-.3.1-.3h2.6l.8.3.6.4.3.5a1.5,1.5,0,0,1,.1.7,1.3,1.3,0,0,1-.1.6c-.1.2-.1.4-.3.5l-.4.4-.6.3.3.2.3.2c.1.2.2.3.2.4l.3.5.6,1.6a.4.4,0,0,1,.1.3A.1.1,0,0,1,199.2,60.2Zm-1.5-5a1.4,1.4,0,0,0-.2-.7,1.8,1.8,0,0,0-.7-.5h-1.6v2.4h1.6l.5-.3.3-.3A4.3,4.3,0,0,1,197.7,55.2Z"/><path class="cls-2" d="M204.7,57.5a.4.4,0,0,1-.1.3c0,.1-.1.1-.2.1h-3.5c0,.3.1.5.1.7a1.6,1.6,0,0,0,.3.6,1,1,0,0,0,.5.4h2.4c0-.1.1-.1.2-.1h.1v.2h-.1c0,.1-.1.1-.2.1l-.4.2h-2.4l-.8-.5a2.6,2.6,0,0,1-.5-.9,3.7,3.7,0,0,1-.2-1.2,3.6,3.6,0,0,1,.2-1.1,2.6,2.6,0,0,1,.5-.9l.8-.5a2.4,2.4,0,0,1,2.8.5,1.6,1.6,0,0,1,.4.7,2.8,2.8,0,0,1,.1.9Zm-.9-.3a1.4,1.4,0,0,0-.4-1.1,1.1,1.1,0,0,0-1-.4h-.6a1,1,0,0,0-.5.4l-.3.4c0,.2-.1.4-.1.6Z"/><path class="cls-2" d="M209.9,59.4v.2h-.1l-.3.2-.3.2h-2a2.4,2.4,0,0,1-.8-.6,2,2,0,0,1-.4-.8,3.6,3.6,0,0,1-.2-1.1,5.1,5.1,0,0,1,.2-1.3,4.1,4.1,0,0,1,.5-.9l.8-.5h1.9l.3.2.3.2h.1v.5h-.4l-.2-.2-.5-.2h-.5c-.5,0-.9.1-1.1.5a2.6,2.6,0,0,0-.4,1.4c0,.3.1.6.1.9l.3.6a2.8,2.8,0,0,0,1.1.5h.6l.4-.3.3-.2h.3v.2Z"/><path class="cls-2" d="M215.7,57.5c0,.1-.1.2-.1.3h-3.7a1.5,1.5,0,0,0,.1.7.8.8,0,0,0,.2.6l.6.4h2.6c0,.1.1.1.1.2h-.3l-.4.2h-2.4a2.6,2.6,0,0,1-.9-.5l-.5-.9a4.1,4.1,0,0,1-.1-1.2,3.7,3.7,0,0,1,.1-1.1l.5-.9.8-.5a2,2,0,0,1,1.1-.2,1.6,1.6,0,0,1,1,.2,1.8,1.8,0,0,1,.7.5,1,1,0,0,1,.4.7,2.9,2.9,0,0,1,.2.9Zm-1-.3a1.8,1.8,0,0,0-.3-1.1,1.4,1.4,0,0,0-1.1-.4h-.6a.8.8,0,0,0-.4.4.5.5,0,0,0-.3.4,1.3,1.3,0,0,0-.1.6Z"/><path class="cls-2" d="M218.2,53.5c0,.3,0,.4-.1.5h-1c0-.1-.1-.2-.1-.4a2,2,0,0,1,.1-.5h1C218.2,53.2,218.2,53.3,218.2,53.5Zm-.1,6.7h-1v-5h1Z"/><path class="cls-2" d="M224.1,55.2h0l-1.8,4.8H221l-1.8-4.8h1l1.5,4.1h0l1.5-4.1h.9Z"/><path class="cls-2" d="M229,60.2h-.7a.1.1,0,0,0-.1-.1h0v-.5l-.8.5a1.5,1.5,0,0,1-.9.2h-.7a.6.6,0,0,1-.6-.3.8.8,0,0,1-.4-.4,1.5,1.5,0,0,1-.1-.7.8.8,0,0,1,.2-.7,1.2,1.2,0,0,1,.5-.5,1.1,1.1,0,0,1,.8-.3H228v-.9c-.1-.2-.2-.3-.2-.4l-.4-.2h-1.2l-.5.2-.4.2h-.2c-.1,0-.1,0-.1-.1h0a.1.1,0,0,1-.1-.1.3.3,0,0,1,.1-.2c0-.1,0-.1.1-.2l.2-.2h.5l.5-.2h1.6l.6.4a1,1,0,0,1,.4.5c0,.3.1.5.1.9Zm-1-2.3h-1.5l-.5.2c-.1.1-.2.2-.2.3s-.1.2-.1.4a1.4,1.4,0,0,0,.2.6,1.3,1.3,0,0,0,1.4,0,1.8,1.8,0,0,0,.7-.5Z"/><path class="cls-2" d="M235.5,57.6a4.1,4.1,0,0,1-.1,1.2,2.6,2.6,0,0,1-.5.9,1.3,1.3,0,0,1-.7.5,1.3,1.3,0,0,1-.9.2h-.5l-.4-.2L232,60l-.4-.4v.6h-.9V52.8h.3c0-.1.1-.1.2-.1s.2,0,.2.1h.3v3l.4-.4.5-.2.4-.2h.4l1,.2a.9.9,0,0,1,.6.6,2,2,0,0,1,.4.8A3.4,3.4,0,0,1,235.5,57.6Zm-1,.2V57c-.1-.2-.1-.4-.2-.6l-.4-.5h-1l-.4.2-.4.3-.4.4v2a4.5,4.5,0,0,0,.7.7,1.3,1.3,0,0,0,.8.3l.6-.2c.2-.1.3-.3.4-.4l.3-.7Z"/><path class="cls-2" d="M237.9,60.2H237V52.8h.9Z"/><path class="cls-2" d="M244.1,57.5a.4.4,0,0,1-.1.3c0,.1-.1.1-.2.1h-3.5c0,.3.1.5.1.7a1.6,1.6,0,0,0,.3.6l.5.4h2.7v.2h-.1c0,.1-.1.1-.2.1l-.4.2h-2.4l-.8-.5a2.6,2.6,0,0,1-.5-.9,3.7,3.7,0,0,1-.2-1.2,3.6,3.6,0,0,1,.2-1.1,2.6,2.6,0,0,1,.5-.9l.8-.5a2,2,0,0,1,1.1-.2,1.6,1.6,0,0,1,1,.2,1.8,1.8,0,0,1,.7.5,1.6,1.6,0,0,1,.4.7,2.8,2.8,0,0,1,.1.9Zm-.9-.3a1.8,1.8,0,0,0-.3-1.1,1.4,1.4,0,0,0-1.1-.4h-.6l-.5.4-.3.4c0,.2-.1.4-.1.6Z"/><path class="cls-2" d="M248.9,58.8a1.4,1.4,0,0,1-.2.7,1,1,0,0,1-.4.5.9.9,0,0,1-.6.3h-2.2l-.2-.2h-.1v-.5h.3l.3.2h1.5l.3-.2.3-.2v-.4a.4.4,0,0,0-.1-.3l-.3-.3-.4-.2-.5-.2-.5-.2-.4-.3-.3-.4a4.3,4.3,0,0,1-.1-.5c0-.2.1-.4.1-.6l.4-.5.6-.3h2.1a.1.1,0,0,0,.1.1h0v.2h-.5l-.4-.2h-.9l-.3.2c-.1.1-.2.1-.2.2s-.1.2-.1.3.1.3.1.4l.3.2.5.2.5.2.4.2.5.3.3.4A4.3,4.3,0,0,1,248.9,58.8Z"/><path class="cls-2" d="M44.5,46.1c.9-1,2-12.4-.9-17.5-2.9,7.5-10.9,13.6-19.4,13.7,3.3,4,10,6.4,15.7,7A24.2,24.2,0,0,0,44.5,46.1Z"/><path class="cls-2" d="M2.5,31.7C1.9,28.7,11,16.9,18,15.1c-1.2,2.6-3.5,8.5-3.2,13.2C15.5,40.5,26.1,50.8,37,50.5,26.2,56,6.3,50.7,2.5,31.7Z"/><path class="cls-2" d="M23.9,12.1c13.1,0,23.8,11.4,23.8,25.4a42,42,0,0,1-.6,6.1c3.8-4.5,6.2-9.4,6.2-17.2A25.5,25.5,0,0,0,27.7,1.1C13.6,1.1,2.1,11.5,1.9,27.2c1.4-3.2,7.8-15.1,22-15.1"/></svg>