<svg xmlns="http://www.w3.org/2000/svg" width="48" height="48" viewBox="0 0 48 48"><defs><style>.a{fill:#fff;}.b{fill:#5daae0;}</style></defs><g transform="translate(-1431 -15)"><circle class="a" cx="19.5" cy="19.5" r="19.5" transform="translate(1436 19.5)"/><path class="b" d="M24,48A24.006,24.006,0,0,1,14.658,1.886,24.006,24.006,0,0,1,33.341,46.114,23.849,23.849,0,0,1,24,48Zm.078-14.249a2.6,2.6,0,1,0,2.6,2.6A2.6,2.6,0,0,0,24.078,33.751ZM32.383,26a2.6,2.6,0,1,0,2.6,2.6A2.6,2.6,0,0,0,32.383,26Zm-8.305,0a2.6,2.6,0,1,0,2.6,2.6A2.6,2.6,0,0,0,24.078,26Zm-8.305,0a2.6,2.6,0,1,0,2.6,2.6A2.6,2.6,0,0,0,15.772,26Zm16.611-7.747a2.6,2.6,0,1,0,2.6,2.6A2.6,2.6,0,0,0,32.383,18.257Zm-8.305,0a2.6,2.6,0,1,0,2.6,2.6A2.6,2.6,0,0,0,24.078,18.257Zm-8.305,0a2.6,2.6,0,1,0,2.6,2.6A2.6,2.6,0,0,0,15.772,18.257Zm16.61-7.9a2.6,2.6,0,1,0,2.6,2.6A2.6,2.6,0,0,0,32.382,10.353Zm-8.305,0a2.6,2.6,0,1,0,2.6,2.6A2.6,2.6,0,0,0,24.077,10.353Zm-8.305,0a2.6,2.6,0,1,0,2.6,2.6A2.6,2.6,0,0,0,15.771,10.353Z" transform="translate(1431 15)"/></g></svg>