<svg xmlns="http://www.w3.org/2000/svg" width="48" height="48" viewBox="0 0 48 48"><defs><style>.a{fill:#fff;}.b{fill:#5daae0;}</style></defs><g transform="translate(-704 -13)"><circle class="a" cx="19.5" cy="19.5" r="19.5" transform="translate(708.5 18)"/><g transform="translate(704 13)"><path class="b" d="M39.7,32.6a7.2,7.2,0,1,0,7.2,7.2A7.2,7.2,0,0,0,39.7,32.6Z" transform="translate(-17.173 -17.224)"/><path class="b" d="M25.4,1.4a24,24,0,1,0,24,24A24,24,0,0,0,25.4,1.4ZM37.08,37.72a2.094,2.094,0,0,1-1.478.542h0a2.181,2.181,0,0,1-1.478-.542l-4.534-4.534-.444.246a10.773,10.773,0,1,1,5.569-9.413,10.545,10.545,0,0,1-1.774,5.914l-.3.493,4.485,4.485a2.2,2.2,0,0,1,.591,1.429A2.242,2.242,0,0,1,37.08,37.72Z" transform="translate(-1.4 -1.4)"/></g></g></svg>