<svg id="outline-monetization_on-24px" xmlns="http://www.w3.org/2000/svg" width="24" height="24" viewBox="0 0 24 24">
  <path id="Path_2280" data-name="Path 2280" d="M0,0H24V24H0Z" fill="none"/>
  <path id="Path_2281" data-name="Path 2281" d="M12,2A10,10,0,1,0,22,12,10,10,0,0,0,12,2Zm0,18a8,8,0,1,1,8-8A8.011,8.011,0,0,1,12,20Zm.31-8.86c-1.77-.45-2.34-.94-2.34-1.67,0-.84.79-1.43,2.1-1.43,1.38,0,1.9.66,1.94,1.64h1.71a3.1,3.1,0,0,0-2.49-2.97V5H10.9V6.69A3.021,3.021,0,0,0,8.18,9.5c0,1.79,1.49,2.69,3.66,3.21,1.95.46,2.34,1.15,2.34,1.87,0,.53-.39,1.39-2.1,1.39-1.6,0-2.23-.72-2.32-1.64H8.04A3.243,3.243,0,0,0,10.9,17.3V19h2.34V17.33c1.52-.29,2.72-1.16,2.73-2.77-.01-2.2-1.9-2.96-3.66-3.42Z" fill="#5daae0"/>
</svg>
