<svg xmlns="http://www.w3.org/2000/svg" width="70" height="70" viewBox="0 0 70 70">
  <g id="Promise_Kept" data-name="Promise Kept" transform="translate(-240 -79)">
    <rect id="Rectangle_2" data-name="Rectangle 2" width="70" height="70" transform="translate(240 79)" opacity="0"/>
    <g id="Promise__-01" data-name="Promise_!-01" transform="translate(242.341 81.096)">
      <path id="Path_1" data-name="Path 1" d="M21.062,33.33a1.338,1.338,0,0,1-1-.335,1.45,1.45,0,0,1-.558-1.227V26.75a.781.781,0,0,1,.335-.669L26.08,22.4H43.59a.446.446,0,0,1,.446.446c0,.223-.223.335-.446.335H26.3L20.281,26.75v5.019a.892.892,0,0,0,.223.558.781.781,0,0,0,.669.112A4.461,4.461,0,0,0,24.407,28.2v-.558h7.361v.335c0,2.677,2.231,3.68,4.461,3.68h5.353c.223,0,.446.112.446.335a.446.446,0,0,1-.446.446H36.229c-3.123,0-5.13-1.561-5.353-4.015H25.3a5.242,5.242,0,0,1-3.9,4.8Z" transform="translate(2.172 0.864)" fill="#fff"/>
      <path id="Path_2" data-name="Path 2" d="M14.207,36.706a.335.335,0,0,1-.335-.335l-.892-2.007-1.561-.781c-.223-.112-.223-.335-.112-.558a.446.446,0,0,1,.558-.223l1.673,1,1.115,2.231c0,.223,0,.446-.223.558Z" transform="translate(1.219 2.06)" fill="#fff"/>
      <path id="Path_3" data-name="Path 3" d="M31.116,48.383a2.565,2.565,0,0,1-1.561-.446l-1.338-.669c-.112-.112-.223-.446-.112-.558a.446.446,0,0,1,.558-.223l1.227.781a2.342,2.342,0,0,0,1.673.335,3.346,3.346,0,0,0,1.45-1,2.119,2.119,0,0,0-.669-3.011l-1.561-1c-.223-.112-.335-.446-.223-.558s.446-.335.558-.223l1.673,1a3.123,3.123,0,0,1,.892,4.238,3.346,3.346,0,0,1-1.9,1.338Z" transform="translate(3.158 3.097)" fill="#fff"/>
      <path id="Path_4" data-name="Path 4" d="M36.215,46.048a2.565,2.565,0,0,1-1.561-.446l-4.127-2.565c-.223-.112-.335-.446-.223-.558s.446-.335.558-.223L35.1,44.933a2.231,2.231,0,0,0,2.342-3.68l-4.126-2.677a.446.446,0,0,1-.223-.558.558.558,0,0,1,.669-.112l4.126,2.565a3.346,3.346,0,0,1,1.338,1.9,3.457,3.457,0,0,1-.446,2.342,3.011,3.011,0,0,1-2.565,1.338Z" transform="translate(3.412 2.644)" fill="#fff"/>
      <path id="Path_5" data-name="Path 5" d="M41.279,43.829a2.677,2.677,0,0,1-1.561-.558l-6.692-4.238a.446.446,0,0,1-.223-.558.558.558,0,0,1,.669-.112L40.164,42.6a2.119,2.119,0,0,0,1.673.335,2.454,2.454,0,0,0,1.338-1,2.231,2.231,0,0,0,.335-1.673,3.011,3.011,0,0,0-1-1.338l-6.692-4.238c-.223-.112-.335-.446-.112-.558a.446.446,0,0,1,.558-.223l6.692,4.35a2.788,2.788,0,0,1,1.338,1.784,3.123,3.123,0,0,1-2.342,3.68Z" transform="translate(3.702 2.187)" fill="#fff"/>
      <path id="Path_6" data-name="Path 6" d="M46.342,41.4a2.677,2.677,0,0,1-1.561-.558l-9.257-5.8c-.223-.112-.335-.446-.112-.558a.446.446,0,0,1,.558-.223l9.257,5.911a2.231,2.231,0,0,0,3.346-2.342,2.119,2.119,0,0,0-1-1.338l-8.03-5.019a.446.446,0,0,1-.112-.558c.112-.223.335-.223.558-.112l8.03,4.907a3.234,3.234,0,0,1,1.338,2.007,3.14,3.14,0,0,1-3.011,3.68Z" transform="translate(3.992 1.825)" fill="#fff"/>
      <path id="Path_7" data-name="Path 7" d="M46.449,36.119h-.223A.335.335,0,0,1,46,35.673l.892-1.784,1.45-.781c.223-.112.446-.112.558.112s.112.446-.112.558l-1.338.669-.669,1.561Z" transform="translate(5.224 2.09)" fill="#fff"/>
      <path id="Path_8" data-name="Path 8" d="M15.212,41.193a2.565,2.565,0,0,1-1.561-.446h-.112a2.788,2.788,0,0,1-.892-3.9A3.457,3.457,0,0,1,14.431,35.5a3.123,3.123,0,0,1,2.231.446h.112a3.011,3.011,0,0,1,.892,4.015A2.9,2.9,0,0,1,15.212,41.193ZM15.1,36.174h-.446a2.454,2.454,0,0,0-1.338,1,2.007,2.007,0,0,0,.669,2.788H14.1A2.119,2.119,0,0,0,17,39.3a2.007,2.007,0,0,0-.669-2.788h-.112a2.119,2.119,0,0,0-1.115-.335Z" transform="translate(1.33 2.369)" fill="#fff"/>
      <path id="Path_9" data-name="Path 9" d="M26.712,48.6a3.68,3.68,0,0,1-1.561-.446h-.112a2.908,2.908,0,1,1,3.123-4.907h.112A2.565,2.565,0,0,1,29.5,45.031a2.677,2.677,0,0,1-.335,2.231,2.565,2.565,0,0,1-1.784,1.227ZM26.6,43.582a2.342,2.342,0,0,0-1.784.892,2.231,2.231,0,0,0,.669,2.9H25.6a1.9,1.9,0,0,0,1.561.335,2.231,2.231,0,0,0,1.338-.892,2.454,2.454,0,0,0,.223-1.561,2.231,2.231,0,0,0-.892-1.338h-.112A1.784,1.784,0,0,0,26.6,43.582Z" transform="translate(2.655 3.215)" fill="#fff"/>
      <path id="Path_10" data-name="Path 10" d="M19.006,43.8a2.565,2.565,0,0,1-1.561-.446h0a2.9,2.9,0,0,1-.892-4.127l1.115-1.784a3.346,3.346,0,0,1,1.9-1.338,3.123,3.123,0,0,1,2.231.446,2.788,2.788,0,0,1,1.338,1.784,3.123,3.123,0,0,1-.446,2.231l-1.227,1.9A3.123,3.123,0,0,1,19.676,43.8Zm-1.115-1.115a2.007,2.007,0,0,0,2.9-.669l1.227-1.9a2.119,2.119,0,0,0-.669-2.9,1.9,1.9,0,0,0-1.561-.335,2.23,2.23,0,0,0-1.45,1l-1.115,1.784a2.231,2.231,0,0,0,.669,3.011Z" transform="translate(1.773 2.438)" fill="#fff"/>
      <path id="Path_11" data-name="Path 11" d="M22.8,46.428a4.127,4.127,0,0,1-1.561-.446h0a2.788,2.788,0,0,1-1.227-1.9,2.677,2.677,0,0,1,.335-2.231l2.007-3.011a2.788,2.788,0,0,1,4.015-.892,2.9,2.9,0,0,1,.892,4.015l-1.9,3.123a2.788,2.788,0,0,1-1.9,1.227Zm2.007-8.141h-.446a1.784,1.784,0,0,0-1.338,1L21.015,42.3a2.119,2.119,0,0,0,.669,2.9h0a2.119,2.119,0,0,0,3.011-.558l1.9-3.123a1.9,1.9,0,0,0,.335-1.561,3.011,3.011,0,0,0-1-1.338,1.9,1.9,0,0,0-1.115-.335Z" transform="translate(2.218 2.599)" fill="#fff"/>
      <path id="Path_12" data-name="Path 12" d="M26.33,23.181H18.746c-.223,0-.446-.112-.446-.335a.446.446,0,0,1,.446-.446H26.33c.223,0,.335.112.335.446a.335.335,0,0,1-.335.335Z" transform="translate(2.033 0.864)" fill="#fff"/>
      <path id="Path_13" data-name="Path 13" d="M32.735,35.623h-.223a.112.112,0,0,1-.112-.112h.112a.112.112,0,0,1,.112-.112h.335a.112.112,0,0,1,.112.112h0a.112.112,0,0,1,.112.112h-.446Z" transform="translate(3.659 2.363)" fill="#fff"/>
      <path id="Path_14" data-name="Path 14" d="M30.335,39.446H30v-.223c0-.112,0-.112.112-.223h.669c.112.112.112.112.112.223h-.446Z" transform="translate(3.382 2.777)" fill="#fff"/>
      <path id="Path_15" data-name="Path 15" d="M9.069,39.1a2.231,2.231,0,0,1-1.45-.446L1.82,34.64a2.341,2.341,0,0,1-.669-3.457L11.523,16.015a2.454,2.454,0,0,1,3.457-.669l5.911,4.015a2.677,2.677,0,0,1,.669,3.569L11.077,37.986A2.342,2.342,0,0,1,9.515,39.1Zm-.892-1.227a1.338,1.338,0,0,0,1.115.335,1.673,1.673,0,0,0,1-.669L20.78,22.372a1.673,1.673,0,0,0-.446-2.231l-5.8-4.015a1.561,1.561,0,0,0-1.227-.223,1.673,1.673,0,0,0-1,.669L1.932,31.74A1.45,1.45,0,0,0,1.6,32.855a1.673,1.673,0,0,0,.669,1Z" transform="translate(0 0)" fill="#fff"/>
      <path id="Path_16" data-name="Path 16" d="M52.714,39.306a2.565,2.565,0,0,1-2.119-1.115L40.446,22.8a2.454,2.454,0,0,1,.669-3.457l5.911-3.9a2.788,2.788,0,0,1,1.9-.335,2.119,2.119,0,0,1,1.561,1L60.632,31.5a2.342,2.342,0,0,1,.446,1.9,2.677,2.677,0,0,1-1.115,1.561l-5.911,3.9A2.119,2.119,0,0,1,52.714,39.306ZM48.364,16a1.115,1.115,0,0,0-.781.223l-5.911,3.9a1.561,1.561,0,0,0-.446,2.231L51.375,37.633a1.45,1.45,0,0,0,2.119.446l5.911-3.9a1.227,1.227,0,0,0,.669-1,1.673,1.673,0,0,0-.223-1.227L49.7,16.666a1.673,1.673,0,0,0-1-.669Z" transform="translate(4.535 0.018)" fill="#fff"/>
    </g>
  </g>
</svg>
