<svg xmlns="http://www.w3.org/2000/svg" width="89" height="58.77" viewBox="0 0 89 58.77"><defs><style>.a{opacity:0.6;}.b{fill:#fff;}</style></defs><g class="a" transform="translate(-494.84 -649)"><path class="b" d="M51.691,68.058c1.285,2.668.593,3.36.4,4.447s0,1.68,1.087,2.866c.791.889,2.668.2,3.755-.593.791-.4,1.087-1.976.889-2.767-.1-.791-.1-.791-1.383-2.174-.791-1.383-.2-1.976.593-1.878,1.581.494,2.47,2.569,3.656,3.261,1.383.494,4.348.494,4.644-.2a2.525,2.525,0,0,0,.2-2.668c-.593-1.087-5.435-7.016-5.731-8.2-.3-1.285.1-1.976.988-1.779.988.2,4.743,6.621,6.028,8,1.186,1.383,1.68,1.976,2.767,2.372,1.186.2,2.866-1.285,3.755-2.273.988-1.285-.2-3.459-.593-3.953-.791-1.383-5.237-6.72-5.633-7.51-.988-1.581.1-2.372.889-2.273.988-.1,5.139,6.226,6.127,7.609,1.186,1.383,1.878,2.273,3.063,2.47,1.186.4,2.569-1.087,3.36-2.668s-1.878-6.621-2.866-8-5.139-7.214-6.818-8.894c-3.36-3.459-9.19-9.289-10.969-10.771A8.342,8.342,0,0,0,56.73,31.1L50.9,67.366C51.1,67.366,51.394,67.564,51.691,68.058Z" transform="translate(489.949 628.412)"/><path class="b" d="M93.565,40.272c-1.482-4.348-2.47-7.51-4.15-10.178-1.779-2.767-4.15-4.348-4.743-3.953s-7.115,1.779-8.7,1.285c-1.68-.3-9.882-5.04-11.068-5.731a21.647,21.647,0,0,0-4.546-.494,15.469,15.469,0,0,0-1.976.3L57.2,28.611c1.581-.791,3.854,0,7.708,3.36a111.572,111.572,0,0,1,12.945,13.34c.988,1.186,5.237,2.075,8.5,1.878-2.767,1.779-5.731,1.976-4.447,3.162,3.261,3.953,2.668,6.324,2.965,5.83,1.186-.988,6.818-3.063,7.609-3.36C93.268,52.426,94.652,44.126,93.565,40.272Z" transform="translate(489.875 628.529)"/><path class="b" d="M40.468,32.259c-.692,1.186-2.174,5.633-3.854,8.3-1.68,2.372-5.04,4.052-7.708,2.965-2.767-1.383-3.854-4.052-3.162-5.435a19.106,19.106,0,0,0,1.581-8.3A16.089,16.089,0,0,1,29.2,25.144c.692-1.186,4.743-3.063,5.04-4.052.4-.593-2.174-.791-4.348-.494-1.878.4-4.644,3.557-5.237,4.15a16.052,16.052,0,0,1-7.115,4.546c-1.68.4-3.459,0-6.324-.593-2.767-.4-5.534,7.214-6.522,13.538-.988,6.423.2,14.032,2.174,13.834,1.878.791,5.435.988,7.807,1.976.791.3,3.261,1.482,3.261,1.482a13.674,13.674,0,0,1,5.534-1.779c3.36-.3,5.04,5.04,5.435,3.261A6.8,6.8,0,0,1,35.23,56.37c4.941.1,3.755,4.842,4.842,4.842.988,0,3.36-3.459,6.72-1.976,4.15,1.976,1.186,6.127,2.075,7.214.494.593.791.494,1.383.692l-8.1-35.772A1.941,1.941,0,0,0,40.468,32.259Z" transform="translate(490.5 628.538)"/><path class="b" d="M32.363,27.13c-1.186,1.482-.988,6.423-1.186,6.917.1.494-1.878,4.644-1.878,4.644s.2.692,1.68,1.087a3.153,3.153,0,0,0,3.755-.889c2.372-2.47,2.372-4.941,3.261-6.423.791-1.878-.791-6.917-.791-6.917,1.383-.3,2.965,4.546,4.348,2.965l.2-.2L40.17,21.3C37.6,22.881,33.055,26.043,32.363,27.13Z" transform="translate(490.205 628.528)"/><path class="b" d="M26.292,68.305c1.087.494-2.965,4.15,1.976,6.423,4.15,1.976,5.929-2.273,6.226-2.174.2-.1-1.285,2.965,1.482,4.348,3.557,1.68,4.546-1.779,5.139-1.383.3.4-1.186,2.47,1.383,3.854,2.273,1.186,4.941-1.087,6.028-2.569,1.383-1.581,1.976-2.174,2.174-3.459.3-1.087-.3-3.656-1.68-4.348s-2.372.494-3.459,1.285c-.791.889.988-1.976,1.285-3.953.3-2.075-.3-3.656-2.273-4.447-1.878-.593-4.941,1.087-6.028,3.854-.692,1.383-1.68.4-1.383-.692.791-2.174-.494-4.348-3.557-4.644s-4.052,1.68-5.04,4.842c-.593,1.878-1.285.791-1.285-.2A4.7,4.7,0,0,0,23.821,60.6c-3.162-.791-4.842,1.383-5.929,3.063-1.383,2.767-.494,5.534,2.668,7.313C24.513,73.444,25.3,68.107,26.292,68.305Z" transform="translate(490.347 628.066)"/></g></svg>