<svg xmlns="http://www.w3.org/2000/svg" width="46" height="46" viewBox="0 0 46 46">
  <g id="Symbol_425_1" data-name="Symbol 425 – 1" transform="translate(-10752 4864)">
    <path id="Path_195" data-name="Path 195" d="M23,0A23,23,0,1,1,0,23,23,23,0,0,1,23,0Z" transform="translate(10752 -4864)" fill="#5daae0"/>
    <path id="Path_202" data-name="Path 202" d="M28.263,16.211H25.579a8.075,8.075,0,0,1-.679,3.237l1.942,1.942a10.4,10.4,0,0,0,1.421-5.179Zm-6.347.268c0-.095.032-.174.032-.268V6.737a4.737,4.737,0,0,0-9.474,0v.284ZM5.005,3.579,3,5.584l9.489,9.489v1.137a4.717,4.717,0,0,0,4.721,4.737,4.454,4.454,0,0,0,1.026-.126l2.621,2.621a8.682,8.682,0,0,1-3.647.821,8.193,8.193,0,0,1-8.368-8.053H6.158a11.027,11.027,0,0,0,9.474,10.611V32h3.158V26.821A11.073,11.073,0,0,0,22.8,25.4L29.416,32l2.005-2.005Z" transform="translate(10758 -4858)" fill="#455469"/>
  </g>
</svg>
