<svg xmlns="http://www.w3.org/2000/svg" width="48.001" height="48" viewBox="0 0 48.001 48">
  <g id="Symbol_83_5" data-name="Symbol 83 – 5" transform="translate(-1499.5 -14.5)">
    <circle id="Ellipse_63" data-name="Ellipse 63" cx="19.5" cy="19.5" r="19.5" transform="translate(1504 18.5)" fill="#fff"/>
    <path id="Subtraction_2" data-name="Subtraction 2" d="M-47.5,4750.5a23.843,23.843,0,0,1-16.971-7.03A23.843,23.843,0,0,1-71.5,4726.5a23.841,23.841,0,0,1,7.03-16.97A23.841,23.841,0,0,1-47.5,4702.5a23.841,23.841,0,0,1,16.971,7.03,23.841,23.841,0,0,1,7.03,16.97,23.843,23.843,0,0,1-7.03,16.971A23.843,23.843,0,0,1-47.5,4750.5Zm-10.109-32.179a8.043,8.043,0,0,0-8.034,8.034,8.044,8.044,0,0,0,8.034,8.035H-37.18a8.044,8.044,0,0,0,8.034-8.035,8.043,8.043,0,0,0-8.034-8.034,8.043,8.043,0,0,0-8.034,8.034,8.045,8.045,0,0,0,1.787,5.044h-7.935a8.043,8.043,0,0,0,1.787-5.044A8.043,8.043,0,0,0-57.609,4718.321ZM-37.18,4731.4a5.05,5.05,0,0,1-5.044-5.044,5.05,5.05,0,0,1,5.044-5.044,5.05,5.05,0,0,1,5.044,5.044A5.05,5.05,0,0,1-37.18,4731.4Zm-20.429,0a5.05,5.05,0,0,1-5.044-5.044,5.05,5.05,0,0,1,5.044-5.044,5.05,5.05,0,0,1,5.044,5.044A5.05,5.05,0,0,1-57.609,4731.4Z" transform="translate(1571 -4688)" fill="#5daae0"/>
  </g>
</svg>
